<svg width="531" height="531" viewBox="0 0 531 531" fill="none" xmlns="http://www.w3.org/2000/svg">
<g filter="url(#filter0_bd_2_27)">
<mask id="path-1-inside-1_2_27" fill="white">
<path fill-rule="evenodd" clip-rule="evenodd" d="M234.563 283.351C234.683 283.352 234.804 283.353 234.924 283.353C252.087 283.353 266 269.44 266 252.277C266 235.115 252.087 221.202 234.924 221.202C234.804 221.202 234.683 221.202 234.563 221.204V221.202H226.535C226.825 219.075 226.975 216.904 226.975 214.697C226.975 188.355 205.62 167 179.277 167C152.935 167 131.58 188.355 131.58 214.697C131.58 217.183 131.77 219.624 132.136 222.007C129.868 221.48 127.504 221.202 125.076 221.202C107.913 221.202 94 235.115 94 252.277C94 269.44 107.913 283.353 125.076 283.353C125.197 283.353 125.318 283.352 125.439 283.351L125.437 283.353H234.563V283.351Z"/>
</mask>
<path fill-rule="evenodd" clip-rule="evenodd" d="M234.563 283.351C234.683 283.352 234.804 283.353 234.924 283.353C252.087 283.353 266 269.44 266 252.277C266 235.115 252.087 221.202 234.924 221.202C234.804 221.202 234.683 221.202 234.563 221.204V221.202H226.535C226.825 219.075 226.975 216.904 226.975 214.697C226.975 188.355 205.62 167 179.277 167C152.935 167 131.58 188.355 131.58 214.697C131.58 217.183 131.77 219.624 132.136 222.007C129.868 221.48 127.504 221.202 125.076 221.202C107.913 221.202 94 235.115 94 252.277C94 269.44 107.913 283.353 125.076 283.353C125.197 283.353 125.318 283.352 125.439 283.351L125.437 283.353H234.563V283.351Z" fill="url(#paint0_linear_2_27)" shape-rendering="crispEdges"/>
<path d="M234.563 283.351L234.586 281.351C234.052 281.345 233.537 281.553 233.157 281.929C232.777 282.304 232.563 282.816 232.563 283.351H234.563ZM234.563 221.204H232.563C232.563 221.738 232.777 222.25 233.157 222.626C233.537 223.002 234.051 223.21 234.586 223.204L234.563 221.204ZM234.563 221.202H236.563C236.563 220.097 235.668 219.202 234.563 219.202V221.202ZM226.535 221.202L224.553 220.931C224.475 221.504 224.649 222.082 225.028 222.517C225.408 222.952 225.957 223.202 226.535 223.202V221.202ZM132.136 222.007L131.684 223.955C132.33 224.106 133.009 223.925 133.496 223.474C133.983 223.023 134.214 222.359 134.113 221.703L132.136 222.007ZM125.439 283.351L127.008 284.59C127.486 283.985 127.573 283.16 127.233 282.468C126.893 281.777 126.186 281.342 125.416 281.351L125.439 283.351ZM125.437 283.353L123.867 282.114C123.392 282.715 123.303 283.535 123.637 284.225C123.971 284.915 124.67 285.353 125.437 285.353V283.353ZM234.563 283.353V285.353C235.668 285.353 236.563 284.458 236.563 283.353H234.563ZM234.54 285.351C234.668 285.352 234.796 285.353 234.924 285.353V281.353C234.811 281.353 234.699 281.352 234.586 281.351L234.54 285.351ZM234.924 285.353C253.192 285.353 268 270.544 268 252.277H264C264 268.335 250.982 281.353 234.924 281.353V285.353ZM268 252.277C268 234.01 253.192 219.202 234.924 219.202V223.202C250.982 223.202 264 236.219 264 252.277H268ZM234.924 219.202C234.796 219.202 234.668 219.202 234.54 219.204L234.586 223.204C234.699 223.202 234.811 223.202 234.924 223.202V219.202ZM232.563 221.202V221.204H236.563V221.202H232.563ZM226.535 223.202H234.563V219.202H226.535V223.202ZM228.517 221.472C228.819 219.256 228.975 216.994 228.975 214.697H224.975C224.975 216.813 224.831 218.894 224.553 220.931L228.517 221.472ZM228.975 214.697C228.975 187.25 206.724 165 179.277 165V169C204.515 169 224.975 189.459 224.975 214.697H228.975ZM179.277 165C151.83 165 129.58 187.25 129.58 214.697H133.58C133.58 189.459 154.039 169 179.277 169V165ZM129.58 214.697C129.58 217.285 129.778 219.828 130.16 222.311L134.113 221.703C133.762 219.421 133.58 217.081 133.58 214.697H129.58ZM132.589 220.059C130.173 219.498 127.658 219.202 125.076 219.202V223.202C127.351 223.202 129.563 223.463 131.684 223.955L132.589 220.059ZM125.076 219.202C106.808 219.202 92 234.01 92 252.277H96C96 236.219 109.018 223.202 125.076 223.202V219.202ZM92 252.277C92 270.544 106.808 285.353 125.076 285.353V281.353C109.018 281.353 96 268.335 96 252.277H92ZM125.076 285.353C125.204 285.353 125.333 285.352 125.461 285.351L125.416 281.351C125.303 281.352 125.189 281.353 125.076 281.353V285.353ZM127.007 284.592L127.008 284.59L123.869 282.112L123.867 282.114L127.007 284.592ZM234.563 281.353H125.437V285.353H234.563V281.353ZM232.563 283.351V283.353H236.563V283.351H232.563Z" fill="url(#paint1_linear_2_27)" mask="url(#path-1-inside-1_2_27)"/>
</g>
<g filter="url(#filter1_bd_2_27)">
<mask id="path-3-inside-2_2_27" fill="white">
<path fill-rule="evenodd" clip-rule="evenodd" d="M328.5 362.997C328.666 362.999 328.833 363 329 363C352.748 363 372 343.748 372 320C372 296.252 352.748 277 329 277C328.833 277 328.666 277.001 328.5 277.003V277H317.391C317.793 274.057 318 271.053 318 268C318 231.549 288.451 202 252 202C215.549 202 186 231.549 186 268C186 271.439 186.263 274.817 186.77 278.115C183.631 277.386 180.361 277 177 277C153.252 277 134 296.252 134 320C134 343.748 153.252 363 177 363C177.168 363 177.335 362.999 177.502 362.997L177.5 363H328.5V362.997Z"/>
</mask>
<path fill-rule="evenodd" clip-rule="evenodd" d="M328.5 362.997C328.666 362.999 328.833 363 329 363C352.748 363 372 343.748 372 320C372 296.252 352.748 277 329 277C328.833 277 328.666 277.001 328.5 277.003V277H317.391C317.793 274.057 318 271.053 318 268C318 231.549 288.451 202 252 202C215.549 202 186 231.549 186 268C186 271.439 186.263 274.817 186.77 278.115C183.631 277.386 180.361 277 177 277C153.252 277 134 296.252 134 320C134 343.748 153.252 363 177 363C177.168 363 177.335 362.999 177.502 362.997L177.5 363H328.5V362.997Z" fill="url(#paint2_linear_2_27)" shape-rendering="crispEdges"/>
<path d="M328.5 362.997L328.523 360.997C327.988 360.991 327.474 361.199 327.094 361.575C326.714 361.951 326.5 362.463 326.5 362.997H328.5ZM328.5 277.003H326.5C326.5 277.537 326.714 278.049 327.094 278.425C327.474 278.801 327.988 279.009 328.523 279.003L328.5 277.003ZM328.5 277H330.5C330.5 275.895 329.605 275 328.5 275V277ZM317.391 277L315.41 276.73C315.332 277.302 315.505 277.88 315.885 278.315C316.265 278.75 316.814 279 317.391 279V277ZM186.77 278.115L186.318 280.063C186.964 280.213 187.643 280.033 188.13 279.582C188.617 279.13 188.848 278.467 188.747 277.811L186.77 278.115ZM177.502 362.997L179.072 364.237C179.549 363.632 179.637 362.807 179.297 362.115C178.957 361.423 178.25 360.988 177.479 360.997L177.502 362.997ZM177.5 363L175.931 361.76C175.455 362.362 175.366 363.182 175.7 363.872C176.034 364.562 176.733 365 177.5 365V363ZM328.5 363V365C329.605 365 330.5 364.105 330.5 363H328.5ZM328.477 364.997C328.651 364.999 328.825 365 329 365V361C328.841 361 328.682 360.999 328.523 360.997L328.477 364.997ZM329 365C353.853 365 374 344.853 374 320H370C370 342.644 351.644 361 329 361V365ZM374 320C374 295.147 353.853 275 329 275V279C351.644 279 370 297.356 370 320H374ZM329 275C328.826 275 328.651 275.001 328.477 275.003L328.523 279.003C328.682 279.001 328.841 279 329 279V275ZM326.5 277V277.003H330.5V277H326.5ZM317.391 279H328.5V275H317.391V279ZM319.373 277.27C319.787 274.238 320 271.143 320 268H316C316 270.962 315.799 273.876 315.41 276.73L319.373 277.27ZM320 268C320 230.445 289.555 200 252 200V204C287.346 204 316 232.654 316 268H320ZM252 200C214.445 200 184 230.445 184 268H188C188 232.654 216.654 204 252 204V200ZM184 268C184 271.542 184.271 275.021 184.793 278.419L188.747 277.811C188.255 274.614 188 271.337 188 268H184ZM187.223 276.167C183.937 275.403 180.514 275 177 275V279C180.207 279 183.326 279.368 186.318 280.063L187.223 276.167ZM177 275C152.147 275 132 295.147 132 320H136C136 297.356 154.356 279 177 279V275ZM132 320C132 344.853 152.147 365 177 365V361C154.356 361 136 342.644 136 320H132ZM177 365C177.175 365 177.35 364.999 177.525 364.997L177.479 360.997C177.32 360.999 177.16 361 177 361V365ZM179.069 364.24L179.072 364.237L175.933 361.757L175.931 361.76L179.069 364.24ZM328.5 361H177.5V365H328.5V361ZM326.5 362.997V363H330.5V362.997H326.5Z" fill="url(#paint3_linear_2_27)" mask="url(#path-3-inside-2_2_27)"/>
</g>
<g filter="url(#filter2_bd_2_27)">
<mask id="path-5-inside-3_2_27" fill="white">
<path fill-rule="evenodd" clip-rule="evenodd" d="M406.563 318.351C406.683 318.352 406.804 318.353 406.924 318.353C424.087 318.353 438 304.44 438 287.277C438 270.115 424.087 256.202 406.924 256.202C406.804 256.202 406.683 256.202 406.563 256.204V256.202H398.535C398.825 254.075 398.975 251.904 398.975 249.697C398.975 223.355 377.62 202 351.277 202C324.935 202 303.58 223.355 303.58 249.697C303.58 252.183 303.77 254.624 304.136 257.007C301.868 256.48 299.504 256.202 297.076 256.202C279.913 256.202 266 270.115 266 287.277C266 304.44 279.913 318.353 297.076 318.353C297.197 318.353 297.318 318.352 297.439 318.351L297.437 318.353H406.563V318.351Z"/>
</mask>
<path fill-rule="evenodd" clip-rule="evenodd" d="M406.563 318.351C406.683 318.352 406.804 318.353 406.924 318.353C424.087 318.353 438 304.44 438 287.277C438 270.115 424.087 256.202 406.924 256.202C406.804 256.202 406.683 256.202 406.563 256.204V256.202H398.535C398.825 254.075 398.975 251.904 398.975 249.697C398.975 223.355 377.62 202 351.277 202C324.935 202 303.58 223.355 303.58 249.697C303.58 252.183 303.77 254.624 304.136 257.007C301.868 256.48 299.504 256.202 297.076 256.202C279.913 256.202 266 270.115 266 287.277C266 304.44 279.913 318.353 297.076 318.353C297.197 318.353 297.318 318.352 297.439 318.351L297.437 318.353H406.563V318.351Z" fill="url(#paint4_linear_2_27)" shape-rendering="crispEdges"/>
<path d="M406.563 318.351L406.586 316.351C406.052 316.345 405.537 316.553 405.157 316.929C404.777 317.304 404.563 317.816 404.563 318.351H406.563ZM406.563 256.204H404.563C404.563 256.738 404.777 257.25 405.157 257.626C405.537 258.002 406.051 258.21 406.586 258.204L406.563 256.204ZM406.563 256.202H408.563C408.563 255.097 407.668 254.202 406.563 254.202V256.202ZM398.535 256.202L396.553 255.931C396.475 256.504 396.649 257.082 397.028 257.517C397.408 257.952 397.957 258.202 398.535 258.202V256.202ZM304.136 257.007L303.684 258.955C304.33 259.106 305.009 258.925 305.496 258.474C305.983 258.023 306.214 257.359 306.113 256.703L304.136 257.007ZM297.439 318.351L299.008 319.59C299.486 318.985 299.573 318.16 299.233 317.468C298.893 316.777 298.186 316.342 297.416 316.351L297.439 318.351ZM297.437 318.353L295.867 317.114C295.392 317.715 295.303 318.535 295.637 319.225C295.971 319.915 296.67 320.353 297.437 320.353V318.353ZM406.563 318.353V320.353C407.668 320.353 408.563 319.458 408.563 318.353H406.563ZM406.54 320.351C406.668 320.352 406.796 320.353 406.924 320.353V316.353C406.811 316.353 406.699 316.352 406.586 316.351L406.54 320.351ZM406.924 320.353C425.192 320.353 440 305.544 440 287.277H436C436 303.335 422.982 316.353 406.924 316.353V320.353ZM440 287.277C440 269.01 425.192 254.202 406.924 254.202V258.202C422.982 258.202 436 271.219 436 287.277H440ZM406.924 254.202C406.796 254.202 406.668 254.202 406.54 254.204L406.586 258.204C406.699 258.202 406.811 258.202 406.924 258.202V254.202ZM404.563 256.202V256.204H408.563V256.202H404.563ZM398.535 258.202H406.563V254.202H398.535V258.202ZM400.517 256.472C400.819 254.256 400.975 251.994 400.975 249.697H396.975C396.975 251.813 396.831 253.894 396.553 255.931L400.517 256.472ZM400.975 249.697C400.975 222.25 378.724 200 351.277 200V204C376.515 204 396.975 224.459 396.975 249.697H400.975ZM351.277 200C323.83 200 301.58 222.25 301.58 249.697H305.58C305.58 224.459 326.039 204 351.277 204V200ZM301.58 249.697C301.58 252.285 301.778 254.828 302.16 257.311L306.113 256.703C305.762 254.421 305.58 252.081 305.58 249.697H301.58ZM304.589 255.059C302.173 254.498 299.658 254.202 297.076 254.202V258.202C299.351 258.202 301.563 258.463 303.684 258.955L304.589 255.059ZM297.076 254.202C278.808 254.202 264 269.01 264 287.277H268C268 271.219 281.018 258.202 297.076 258.202V254.202ZM264 287.277C264 305.544 278.808 320.353 297.076 320.353V316.353C281.018 316.353 268 303.335 268 287.277H264ZM297.076 320.353C297.204 320.353 297.333 320.352 297.461 320.351L297.416 316.351C297.303 316.352 297.189 316.353 297.076 316.353V320.353ZM299.007 319.592L299.008 319.59L295.869 317.112L295.867 317.114L299.007 319.592ZM406.563 316.353H297.437V320.353H406.563V316.353ZM404.563 318.351V318.353H408.563V318.351H404.563Z" fill="url(#paint5_linear_2_27)" mask="url(#path-5-inside-3_2_27)"/>
</g>
<defs>
<filter id="filter0_bd_2_27" x="23" y="132" width="272" height="216.353" filterUnits="userSpaceOnUse" color-interpolation-filters="sRGB">
<feFlood flood-opacity="0" result="BackgroundImageFix"/>
<feGaussianBlur in="BackgroundImageFix" stdDeviation="7"/>
<feComposite in2="SourceAlpha" operator="in" result="effect1_backgroundBlur_2_27"/>
<feColorMatrix in="SourceAlpha" type="matrix" values="0 0 0 0 0 0 0 0 0 0 0 0 0 0 0 0 0 0 127 0" result="hardAlpha"/>
<feOffset dx="-21" dy="15"/>
<feGaussianBlur stdDeviation="25"/>
<feComposite in2="hardAlpha" operator="out"/>
<feColorMatrix type="matrix" values="0 0 0 0 0.113438 0 0 0 0 0.148981 0 0 0 0 0.275 0 0 0 0.25 0"/>
<feBlend mode="normal" in2="effect1_backgroundBlur_2_27" result="effect2_dropShadow_2_27"/>
<feBlend mode="normal" in="SourceGraphic" in2="effect2_dropShadow_2_27" result="shape"/>
</filter>
<filter id="filter1_bd_2_27" x="63" y="167" width="338" height="261" filterUnits="userSpaceOnUse" color-interpolation-filters="sRGB">
<feFlood flood-opacity="0" result="BackgroundImageFix"/>
<feGaussianBlur in="BackgroundImageFix" stdDeviation="7"/>
<feComposite in2="SourceAlpha" operator="in" result="effect1_backgroundBlur_2_27"/>
<feColorMatrix in="SourceAlpha" type="matrix" values="0 0 0 0 0 0 0 0 0 0 0 0 0 0 0 0 0 0 127 0" result="hardAlpha"/>
<feOffset dx="-21" dy="15"/>
<feGaussianBlur stdDeviation="25"/>
<feComposite in2="hardAlpha" operator="out"/>
<feColorMatrix type="matrix" values="0 0 0 0 0.113725 0 0 0 0 0.14902 0 0 0 0 0.27451 0 0 0 0.25 0"/>
<feBlend mode="normal" in2="effect1_backgroundBlur_2_27" result="effect2_dropShadow_2_27"/>
<feBlend mode="normal" in="SourceGraphic" in2="effect2_dropShadow_2_27" result="shape"/>
</filter>
<filter id="filter2_bd_2_27" x="195" y="167" width="272" height="216.353" filterUnits="userSpaceOnUse" color-interpolation-filters="sRGB">
<feFlood flood-opacity="0" result="BackgroundImageFix"/>
<feGaussianBlur in="BackgroundImageFix" stdDeviation="7"/>
<feComposite in2="SourceAlpha" operator="in" result="effect1_backgroundBlur_2_27"/>
<feColorMatrix in="SourceAlpha" type="matrix" values="0 0 0 0 0 0 0 0 0 0 0 0 0 0 0 0 0 0 127 0" result="hardAlpha"/>
<feOffset dx="-21" dy="15"/>
<feGaussianBlur stdDeviation="25"/>
<feComposite in2="hardAlpha" operator="out"/>
<feColorMatrix type="matrix" values="0 0 0 0 0.113438 0 0 0 0 0.148981 0 0 0 0 0.275 0 0 0 0.25 0"/>
<feBlend mode="normal" in2="effect1_backgroundBlur_2_27" result="effect2_dropShadow_2_27"/>
<feBlend mode="normal" in="SourceGraphic" in2="effect2_dropShadow_2_27" result="shape"/>
</filter>
<linearGradient id="paint0_linear_2_27" x1="188" y1="170.5" x2="188" y2="296.5" gradientUnits="userSpaceOnUse">
<stop stop-color="white"/>
<stop offset="1" stop-color="white" stop-opacity="0"/>
</linearGradient>
<linearGradient id="paint1_linear_2_27" x1="180" y1="167" x2="180" y2="283.353" gradientUnits="userSpaceOnUse">
<stop stop-color="white"/>
<stop offset="1" stop-color="white" stop-opacity="0"/>
</linearGradient>
<linearGradient id="paint2_linear_2_27" x1="253" y1="150.5" x2="253" y2="385.5" gradientUnits="userSpaceOnUse">
<stop stop-color="white"/>
<stop offset="1" stop-color="white" stop-opacity="0"/>
</linearGradient>
<linearGradient id="paint3_linear_2_27" x1="253" y1="202" x2="253" y2="363" gradientUnits="userSpaceOnUse">
<stop stop-color="white"/>
<stop offset="1" stop-color="white" stop-opacity="0"/>
</linearGradient>
<linearGradient id="paint4_linear_2_27" x1="360" y1="205.5" x2="360" y2="331.5" gradientUnits="userSpaceOnUse">
<stop stop-color="white"/>
<stop offset="1" stop-color="white" stop-opacity="0"/>
</linearGradient>
<linearGradient id="paint5_linear_2_27" x1="352" y1="202" x2="352" y2="318.353" gradientUnits="userSpaceOnUse">
<stop stop-color="white"/>
<stop offset="1" stop-color="white" stop-opacity="0"/>
</linearGradient>
</defs>
</svg>
