<svg width="531" height="531" viewBox="0 0 531 531" fill="none" xmlns="http://www.w3.org/2000/svg">
<g filter="url(#filter0_bd_2_173)">
<mask id="path-1-inside-1_2_173" fill="white">
<path fill-rule="evenodd" clip-rule="evenodd" d="M234.563 227.351C234.683 227.352 234.804 227.353 234.924 227.353C252.087 227.353 266 213.44 266 196.277C266 179.115 252.087 165.202 234.924 165.202C234.804 165.202 234.683 165.202 234.563 165.204V165.202H226.535C226.825 163.075 226.975 160.904 226.975 158.697C226.975 132.355 205.62 111 179.277 111C152.935 111 131.58 132.355 131.58 158.697C131.58 161.183 131.77 163.624 132.136 166.007C129.868 165.48 127.504 165.202 125.076 165.202C107.913 165.202 94 179.115 94 196.277C94 213.44 107.913 227.353 125.076 227.353C125.197 227.353 125.318 227.352 125.439 227.351L125.437 227.353H234.563V227.351Z"/>
</mask>
<path fill-rule="evenodd" clip-rule="evenodd" d="M234.563 227.351C234.683 227.352 234.804 227.353 234.924 227.353C252.087 227.353 266 213.44 266 196.277C266 179.115 252.087 165.202 234.924 165.202C234.804 165.202 234.683 165.202 234.563 165.204V165.202H226.535C226.825 163.075 226.975 160.904 226.975 158.697C226.975 132.355 205.62 111 179.277 111C152.935 111 131.58 132.355 131.58 158.697C131.58 161.183 131.77 163.624 132.136 166.007C129.868 165.48 127.504 165.202 125.076 165.202C107.913 165.202 94 179.115 94 196.277C94 213.44 107.913 227.353 125.076 227.353C125.197 227.353 125.318 227.352 125.439 227.351L125.437 227.353H234.563V227.351Z" fill="url(#paint0_linear_2_173)" shape-rendering="crispEdges"/>
<path d="M234.563 227.351L234.586 225.351C234.052 225.345 233.537 225.553 233.157 225.929C232.777 226.304 232.563 226.816 232.563 227.351H234.563ZM234.563 165.204H232.563C232.563 165.738 232.777 166.25 233.157 166.626C233.537 167.002 234.051 167.21 234.586 167.204L234.563 165.204ZM234.563 165.202H236.563C236.563 164.097 235.668 163.202 234.563 163.202V165.202ZM226.535 165.202L224.553 164.931C224.475 165.504 224.649 166.082 225.028 166.517C225.408 166.952 225.957 167.202 226.535 167.202V165.202ZM132.136 166.007L131.684 167.955C132.33 168.106 133.009 167.925 133.496 167.474C133.983 167.023 134.214 166.359 134.113 165.703L132.136 166.007ZM125.439 227.351L127.008 228.59C127.486 227.985 127.573 227.16 127.233 226.468C126.893 225.777 126.186 225.342 125.416 225.351L125.439 227.351ZM125.437 227.353L123.867 226.114C123.392 226.715 123.303 227.535 123.637 228.225C123.971 228.915 124.67 229.353 125.437 229.353V227.353ZM234.563 227.353V229.353C235.668 229.353 236.563 228.458 236.563 227.353H234.563ZM234.54 229.351C234.668 229.352 234.796 229.353 234.924 229.353V225.353C234.811 225.353 234.699 225.352 234.586 225.351L234.54 229.351ZM234.924 229.353C253.192 229.353 268 214.544 268 196.277H264C264 212.335 250.982 225.353 234.924 225.353V229.353ZM268 196.277C268 178.01 253.192 163.202 234.924 163.202V167.202C250.982 167.202 264 180.219 264 196.277H268ZM234.924 163.202C234.796 163.202 234.668 163.202 234.54 163.204L234.586 167.204C234.699 167.202 234.811 167.202 234.924 167.202V163.202ZM232.563 165.202V165.204H236.563V165.202H232.563ZM226.535 167.202H234.563V163.202H226.535V167.202ZM228.517 165.472C228.819 163.256 228.975 160.994 228.975 158.697H224.975C224.975 160.813 224.831 162.894 224.553 164.931L228.517 165.472ZM228.975 158.697C228.975 131.25 206.724 109 179.277 109V113C204.515 113 224.975 133.459 224.975 158.697H228.975ZM179.277 109C151.83 109 129.58 131.25 129.58 158.697H133.58C133.58 133.459 154.039 113 179.277 113V109ZM129.58 158.697C129.58 161.285 129.778 163.828 130.16 166.311L134.113 165.703C133.762 163.421 133.58 161.081 133.58 158.697H129.58ZM132.589 164.059C130.173 163.498 127.658 163.202 125.076 163.202V167.202C127.351 167.202 129.563 167.463 131.684 167.955L132.589 164.059ZM125.076 163.202C106.808 163.202 92 178.01 92 196.277H96C96 180.219 109.018 167.202 125.076 167.202V163.202ZM92 196.277C92 214.544 106.808 229.353 125.076 229.353V225.353C109.018 225.353 96 212.335 96 196.277H92ZM125.076 229.353C125.204 229.353 125.333 229.352 125.461 229.351L125.416 225.351C125.303 225.352 125.189 225.353 125.076 225.353V229.353ZM127.007 228.592L127.008 228.59L123.869 226.112L123.867 226.114L127.007 228.592ZM234.563 225.353H125.437V229.353H234.563V225.353ZM232.563 227.351V227.353H236.563V227.351H232.563Z" fill="url(#paint1_linear_2_173)" mask="url(#path-1-inside-1_2_173)"/>
</g>
<g filter="url(#filter1_bd_2_173)">
<mask id="path-3-inside-2_2_173" fill="white">
<path fill-rule="evenodd" clip-rule="evenodd" d="M328.5 306.997C328.666 306.999 328.833 307 329 307C352.748 307 372 287.748 372 264C372 240.252 352.748 221 329 221C328.833 221 328.666 221.001 328.5 221.003V221H317.391C317.793 218.057 318 215.053 318 212C318 175.549 288.451 146 252 146C215.549 146 186 175.549 186 212C186 215.439 186.263 218.817 186.77 222.115C183.631 221.386 180.361 221 177 221C153.252 221 134 240.252 134 264C134 287.748 153.252 307 177 307C177.168 307 177.335 306.999 177.502 306.997L177.5 307H328.5V306.997Z"/>
</mask>
<path fill-rule="evenodd" clip-rule="evenodd" d="M328.5 306.997C328.666 306.999 328.833 307 329 307C352.748 307 372 287.748 372 264C372 240.252 352.748 221 329 221C328.833 221 328.666 221.001 328.5 221.003V221H317.391C317.793 218.057 318 215.053 318 212C318 175.549 288.451 146 252 146C215.549 146 186 175.549 186 212C186 215.439 186.263 218.817 186.77 222.115C183.631 221.386 180.361 221 177 221C153.252 221 134 240.252 134 264C134 287.748 153.252 307 177 307C177.168 307 177.335 306.999 177.502 306.997L177.5 307H328.5V306.997Z" fill="url(#paint2_linear_2_173)" shape-rendering="crispEdges"/>
<path d="M328.5 306.997L328.523 304.997C327.988 304.991 327.474 305.199 327.094 305.575C326.714 305.951 326.5 306.463 326.5 306.997H328.5ZM328.5 221.003H326.5C326.5 221.537 326.714 222.049 327.094 222.425C327.474 222.801 327.988 223.009 328.523 223.003L328.5 221.003ZM328.5 221H330.5C330.5 219.895 329.605 219 328.5 219V221ZM317.391 221L315.41 220.73C315.332 221.302 315.505 221.88 315.885 222.315C316.265 222.75 316.814 223 317.391 223V221ZM186.77 222.115L186.318 224.063C186.964 224.213 187.643 224.033 188.13 223.582C188.617 223.13 188.848 222.467 188.747 221.811L186.77 222.115ZM177.502 306.997L179.072 308.237C179.549 307.632 179.637 306.807 179.297 306.115C178.957 305.423 178.25 304.988 177.479 304.997L177.502 306.997ZM177.5 307L175.931 305.76C175.455 306.362 175.366 307.182 175.7 307.872C176.034 308.562 176.733 309 177.5 309V307ZM328.5 307V309C329.605 309 330.5 308.105 330.5 307H328.5ZM328.477 308.997C328.651 308.999 328.825 309 329 309V305C328.841 305 328.682 304.999 328.523 304.997L328.477 308.997ZM329 309C353.853 309 374 288.853 374 264H370C370 286.644 351.644 305 329 305V309ZM374 264C374 239.147 353.853 219 329 219V223C351.644 223 370 241.356 370 264H374ZM329 219C328.826 219 328.651 219.001 328.477 219.003L328.523 223.003C328.682 223.001 328.841 223 329 223V219ZM326.5 221V221.003H330.5V221H326.5ZM317.391 223H328.5V219H317.391V223ZM319.373 221.27C319.787 218.238 320 215.143 320 212H316C316 214.962 315.799 217.876 315.41 220.73L319.373 221.27ZM320 212C320 174.445 289.555 144 252 144V148C287.346 148 316 176.654 316 212H320ZM252 144C214.445 144 184 174.445 184 212H188C188 176.654 216.654 148 252 148V144ZM184 212C184 215.542 184.271 219.021 184.793 222.419L188.747 221.811C188.255 218.614 188 215.337 188 212H184ZM187.223 220.167C183.937 219.403 180.514 219 177 219V223C180.207 223 183.326 223.368 186.318 224.063L187.223 220.167ZM177 219C152.147 219 132 239.147 132 264H136C136 241.356 154.356 223 177 223V219ZM132 264C132 288.853 152.147 309 177 309V305C154.356 305 136 286.644 136 264H132ZM177 309C177.175 309 177.35 308.999 177.525 308.997L177.479 304.997C177.32 304.999 177.16 305 177 305V309ZM179.069 308.24L179.072 308.237L175.933 305.757L175.931 305.76L179.069 308.24ZM328.5 305H177.5V309H328.5V305ZM326.5 306.997V307H330.5V306.997H326.5Z" fill="url(#paint3_linear_2_173)" mask="url(#path-3-inside-2_2_173)"/>
</g>
<g filter="url(#filter2_bdd_2_173)">
<path d="M296.617 322.541L344.431 235.041C344.782 234.399 345.455 234 346.186 234H393.195C394.698 234 395.664 235.596 394.966 236.928L365.034 294.072C364.336 295.404 365.302 297 366.805 297H403.527C405.256 297 406.17 299.045 405.017 300.334L304.581 412.585C303.107 414.233 300.443 412.623 301.217 410.552L331.991 328.2C332.479 326.893 331.513 325.5 330.118 325.5H298.372C296.853 325.5 295.889 323.874 296.617 322.541Z" fill="url(#paint4_linear_2_173)"/>
<path d="M297.494 323.02L345.309 235.52C345.484 235.2 345.821 235 346.186 235H393.195C393.946 235 394.429 235.798 394.08 236.464L364.148 293.608C363.102 295.605 364.55 298 366.805 298H403.527C404.391 298 404.848 299.023 404.272 299.667L303.836 411.919C303.099 412.743 301.767 411.938 302.154 410.902L332.928 328.55C333.66 326.589 332.211 324.5 330.118 324.5H298.372C297.613 324.5 297.13 323.687 297.494 323.02Z" stroke="url(#paint5_linear_2_173)" stroke-width="2"/>
</g>
<g filter="url(#filter3_bd_2_173)">
<mask id="path-7-inside-3_2_173" fill="white">
<path fill-rule="evenodd" clip-rule="evenodd" d="M406.563 262.351C406.683 262.352 406.804 262.353 406.924 262.353C424.087 262.353 438 248.44 438 231.277C438 214.115 424.087 200.202 406.924 200.202C406.804 200.202 406.683 200.202 406.563 200.204V200.202H398.535C398.825 198.075 398.975 195.904 398.975 193.697C398.975 167.355 377.62 146 351.277 146C324.935 146 303.58 167.355 303.58 193.697C303.58 196.183 303.77 198.624 304.136 201.007C301.868 200.48 299.504 200.202 297.076 200.202C279.913 200.202 266 214.115 266 231.277C266 248.44 279.913 262.353 297.076 262.353C297.197 262.353 297.318 262.352 297.439 262.351L297.437 262.353H406.563V262.351Z"/>
</mask>
<path fill-rule="evenodd" clip-rule="evenodd" d="M406.563 262.351C406.683 262.352 406.804 262.353 406.924 262.353C424.087 262.353 438 248.44 438 231.277C438 214.115 424.087 200.202 406.924 200.202C406.804 200.202 406.683 200.202 406.563 200.204V200.202H398.535C398.825 198.075 398.975 195.904 398.975 193.697C398.975 167.355 377.62 146 351.277 146C324.935 146 303.58 167.355 303.58 193.697C303.58 196.183 303.77 198.624 304.136 201.007C301.868 200.48 299.504 200.202 297.076 200.202C279.913 200.202 266 214.115 266 231.277C266 248.44 279.913 262.353 297.076 262.353C297.197 262.353 297.318 262.352 297.439 262.351L297.437 262.353H406.563V262.351Z" fill="url(#paint6_linear_2_173)" shape-rendering="crispEdges"/>
<path d="M406.563 262.351L406.586 260.351C406.052 260.345 405.537 260.553 405.157 260.929C404.777 261.304 404.563 261.816 404.563 262.351H406.563ZM406.563 200.204H404.563C404.563 200.738 404.777 201.25 405.157 201.626C405.537 202.002 406.051 202.21 406.586 202.204L406.563 200.204ZM406.563 200.202H408.563C408.563 199.097 407.668 198.202 406.563 198.202V200.202ZM398.535 200.202L396.553 199.931C396.475 200.504 396.649 201.082 397.028 201.517C397.408 201.952 397.957 202.202 398.535 202.202V200.202ZM304.136 201.007L303.684 202.955C304.33 203.106 305.009 202.925 305.496 202.474C305.983 202.023 306.214 201.359 306.113 200.703L304.136 201.007ZM297.439 262.351L299.008 263.59C299.486 262.985 299.573 262.16 299.233 261.468C298.893 260.777 298.186 260.342 297.416 260.351L297.439 262.351ZM297.437 262.353L295.867 261.114C295.392 261.715 295.303 262.535 295.637 263.225C295.971 263.915 296.67 264.353 297.437 264.353V262.353ZM406.563 262.353V264.353C407.668 264.353 408.563 263.458 408.563 262.353H406.563ZM406.54 264.351C406.668 264.352 406.796 264.353 406.924 264.353V260.353C406.811 260.353 406.699 260.352 406.586 260.351L406.54 264.351ZM406.924 264.353C425.192 264.353 440 249.544 440 231.277H436C436 247.335 422.982 260.353 406.924 260.353V264.353ZM440 231.277C440 213.01 425.192 198.202 406.924 198.202V202.202C422.982 202.202 436 215.219 436 231.277H440ZM406.924 198.202C406.796 198.202 406.668 198.202 406.54 198.204L406.586 202.204C406.699 202.202 406.811 202.202 406.924 202.202V198.202ZM404.563 200.202V200.204H408.563V200.202H404.563ZM398.535 202.202H406.563V198.202H398.535V202.202ZM400.517 200.472C400.819 198.256 400.975 195.994 400.975 193.697H396.975C396.975 195.813 396.831 197.894 396.553 199.931L400.517 200.472ZM400.975 193.697C400.975 166.25 378.724 144 351.277 144V148C376.515 148 396.975 168.459 396.975 193.697H400.975ZM351.277 144C323.83 144 301.58 166.25 301.58 193.697H305.58C305.58 168.459 326.039 148 351.277 148V144ZM301.58 193.697C301.58 196.285 301.778 198.828 302.16 201.311L306.113 200.703C305.762 198.421 305.58 196.081 305.58 193.697H301.58ZM304.589 199.059C302.173 198.498 299.658 198.202 297.076 198.202V202.202C299.351 202.202 301.563 202.463 303.684 202.955L304.589 199.059ZM297.076 198.202C278.808 198.202 264 213.01 264 231.277H268C268 215.219 281.018 202.202 297.076 202.202V198.202ZM264 231.277C264 249.544 278.808 264.353 297.076 264.353V260.353C281.018 260.353 268 247.335 268 231.277H264ZM297.076 264.353C297.204 264.353 297.333 264.352 297.461 264.351L297.416 260.351C297.303 260.352 297.189 260.353 297.076 260.353V264.353ZM299.007 263.592L299.008 263.59L295.869 261.112L295.867 261.114L299.007 263.592ZM406.563 260.353H297.437V264.353H406.563V260.353ZM404.563 262.351V262.353H408.563V262.351H404.563Z" fill="url(#paint7_linear_2_173)" mask="url(#path-7-inside-3_2_173)"/>
</g>
<g filter="url(#filter4_bdd_2_173)">
<path d="M149.682 323.521L150.856 339.955C151.44 348.133 143.64 354.355 135.796 351.969C127.951 349.583 124.938 340.072 129.977 333.604L140.102 320.607C143.123 316.731 149.332 318.62 149.682 323.521Z" fill="url(#paint8_linear_2_173)" stroke="url(#paint9_linear_2_173)" stroke-width="3"/>
<path d="M207.19 323.521L208.363 339.955C208.947 348.133 201.148 354.355 193.303 351.969C185.459 349.583 182.445 340.072 187.484 333.604L197.61 320.607C200.63 316.731 206.84 318.62 207.19 323.521Z" fill="url(#paint10_linear_2_173)" stroke="url(#paint11_linear_2_173)" stroke-width="3"/>
<path d="M264.697 323.521L265.87 339.955C266.454 348.133 258.655 354.355 250.81 351.969C242.966 349.583 239.952 340.072 244.992 333.604L255.117 320.607C258.137 316.731 264.347 318.62 264.697 323.521Z" fill="url(#paint12_linear_2_173)" stroke="url(#paint13_linear_2_173)" stroke-width="3"/>
</g>
<g filter="url(#filter5_bdd_2_173)">
<path d="M171.682 369.042L172.856 385.475C173.44 393.653 165.64 399.876 157.796 397.489C149.951 395.103 146.938 385.592 151.977 379.124L162.103 366.128C165.123 362.251 171.332 364.14 171.682 369.042Z" fill="url(#paint14_linear_2_173)" stroke="url(#paint15_linear_2_173)" stroke-width="3"/>
<path d="M229.682 369.042L230.856 385.475C231.44 393.653 223.64 399.876 215.796 397.489C207.951 395.103 204.938 385.592 209.977 379.124L220.103 366.128C223.123 362.251 229.332 364.14 229.682 369.042Z" fill="url(#paint16_linear_2_173)" stroke="url(#paint17_linear_2_173)" stroke-width="3"/>
</g>
<defs>
<filter id="filter0_bd_2_173" x="23" y="76" width="272" height="216.353" filterUnits="userSpaceOnUse" color-interpolation-filters="sRGB">
<feFlood flood-opacity="0" result="BackgroundImageFix"/>
<feGaussianBlur in="BackgroundImageFix" stdDeviation="7"/>
<feComposite in2="SourceAlpha" operator="in" result="effect1_backgroundBlur_2_173"/>
<feColorMatrix in="SourceAlpha" type="matrix" values="0 0 0 0 0 0 0 0 0 0 0 0 0 0 0 0 0 0 127 0" result="hardAlpha"/>
<feOffset dx="-21" dy="15"/>
<feGaussianBlur stdDeviation="25"/>
<feComposite in2="hardAlpha" operator="out"/>
<feColorMatrix type="matrix" values="0 0 0 0 0.113438 0 0 0 0 0.148981 0 0 0 0 0.275 0 0 0 0.25 0"/>
<feBlend mode="normal" in2="effect1_backgroundBlur_2_173" result="effect2_dropShadow_2_173"/>
<feBlend mode="normal" in="SourceGraphic" in2="effect2_dropShadow_2_173" result="shape"/>
</filter>
<filter id="filter1_bd_2_173" x="63" y="111" width="338" height="261" filterUnits="userSpaceOnUse" color-interpolation-filters="sRGB">
<feFlood flood-opacity="0" result="BackgroundImageFix"/>
<feGaussianBlur in="BackgroundImageFix" stdDeviation="7"/>
<feComposite in2="SourceAlpha" operator="in" result="effect1_backgroundBlur_2_173"/>
<feColorMatrix in="SourceAlpha" type="matrix" values="0 0 0 0 0 0 0 0 0 0 0 0 0 0 0 0 0 0 127 0" result="hardAlpha"/>
<feOffset dx="-21" dy="15"/>
<feGaussianBlur stdDeviation="25"/>
<feComposite in2="hardAlpha" operator="out"/>
<feColorMatrix type="matrix" values="0 0 0 0 0.113725 0 0 0 0 0.14902 0 0 0 0 0.27451 0 0 0 0.25 0"/>
<feBlend mode="normal" in2="effect1_backgroundBlur_2_173" result="effect2_dropShadow_2_173"/>
<feBlend mode="normal" in="SourceGraphic" in2="effect2_dropShadow_2_173" result="shape"/>
</filter>
<filter id="filter2_bdd_2_173" x="225.369" y="173" width="241.162" height="305.265" filterUnits="userSpaceOnUse" color-interpolation-filters="sRGB">
<feFlood flood-opacity="0" result="BackgroundImageFix"/>
<feGaussianBlur in="BackgroundImageFix" stdDeviation="7"/>
<feComposite in2="SourceAlpha" operator="in" result="effect1_backgroundBlur_2_173"/>
<feColorMatrix in="SourceAlpha" type="matrix" values="0 0 0 0 0 0 0 0 0 0 0 0 0 0 0 0 0 0 127 0" result="hardAlpha"/>
<feOffset dx="-21" dy="15"/>
<feGaussianBlur stdDeviation="25"/>
<feComposite in2="hardAlpha" operator="out"/>
<feColorMatrix type="matrix" values="0 0 0 0 0.113438 0 0 0 0 0.148981 0 0 0 0 0.275 0 0 0 0.25 0"/>
<feBlend mode="normal" in2="effect1_backgroundBlur_2_173" result="effect2_dropShadow_2_173"/>
<feColorMatrix in="SourceAlpha" type="matrix" values="0 0 0 0 0 0 0 0 0 0 0 0 0 0 0 0 0 0 127 0" result="hardAlpha"/>
<feOffset/>
<feGaussianBlur stdDeviation="30.5"/>
<feComposite in2="hardAlpha" operator="out"/>
<feColorMatrix type="matrix" values="0 0 0 0 1 0 0 0 0 0.721569 0 0 0 0 0.00392157 0 0 0 0.49 0"/>
<feBlend mode="normal" in2="effect2_dropShadow_2_173" result="effect3_dropShadow_2_173"/>
<feBlend mode="normal" in="SourceGraphic" in2="effect3_dropShadow_2_173" result="shape"/>
</filter>
<filter id="filter3_bd_2_173" x="195" y="111" width="272" height="216.353" filterUnits="userSpaceOnUse" color-interpolation-filters="sRGB">
<feFlood flood-opacity="0" result="BackgroundImageFix"/>
<feGaussianBlur in="BackgroundImageFix" stdDeviation="7"/>
<feComposite in2="SourceAlpha" operator="in" result="effect1_backgroundBlur_2_173"/>
<feColorMatrix in="SourceAlpha" type="matrix" values="0 0 0 0 0 0 0 0 0 0 0 0 0 0 0 0 0 0 127 0" result="hardAlpha"/>
<feOffset dx="-21" dy="15"/>
<feGaussianBlur stdDeviation="25"/>
<feComposite in2="hardAlpha" operator="out"/>
<feColorMatrix type="matrix" values="0 0 0 0 0.113438 0 0 0 0 0.148981 0 0 0 0 0.275 0 0 0 0.25 0"/>
<feBlend mode="normal" in2="effect1_backgroundBlur_2_173" result="effect2_dropShadow_2_173"/>
<feBlend mode="normal" in="SourceGraphic" in2="effect2_dropShadow_2_173" result="shape"/>
</filter>
<filter id="filter4_bdd_2_173" x="55.0018" y="269.031" width="253.4" height="149.955" filterUnits="userSpaceOnUse" color-interpolation-filters="sRGB">
<feFlood flood-opacity="0" result="BackgroundImageFix"/>
<feGaussianBlur in="BackgroundImageFix" stdDeviation="7"/>
<feComposite in2="SourceAlpha" operator="in" result="effect1_backgroundBlur_2_173"/>
<feColorMatrix in="SourceAlpha" type="matrix" values="0 0 0 0 0 0 0 0 0 0 0 0 0 0 0 0 0 0 127 0" result="hardAlpha"/>
<feOffset dx="-21" dy="15"/>
<feGaussianBlur stdDeviation="25"/>
<feComposite in2="hardAlpha" operator="out"/>
<feColorMatrix type="matrix" values="0 0 0 0 0.113438 0 0 0 0 0.148981 0 0 0 0 0.275 0 0 0 0.25 0"/>
<feBlend mode="normal" in2="effect1_backgroundBlur_2_173" result="effect2_dropShadow_2_173"/>
<feColorMatrix in="SourceAlpha" type="matrix" values="0 0 0 0 0 0 0 0 0 0 0 0 0 0 0 0 0 0 127 0" result="hardAlpha"/>
<feOffset dy="-7"/>
<feGaussianBlur stdDeviation="20.5"/>
<feComposite in2="hardAlpha" operator="out"/>
<feColorMatrix type="matrix" values="0 0 0 0 0.1375 0 0 0 0 0.74125 0 0 0 0 1 0 0 0 0.3 0"/>
<feBlend mode="normal" in2="effect2_dropShadow_2_173" result="effect3_dropShadow_2_173"/>
<feBlend mode="normal" in="SourceGraphic" in2="effect3_dropShadow_2_173" result="shape"/>
</filter>
<filter id="filter5_bdd_2_173" x="77.0019" y="314.551" width="196.385" height="149.955" filterUnits="userSpaceOnUse" color-interpolation-filters="sRGB">
<feFlood flood-opacity="0" result="BackgroundImageFix"/>
<feGaussianBlur in="BackgroundImageFix" stdDeviation="7"/>
<feComposite in2="SourceAlpha" operator="in" result="effect1_backgroundBlur_2_173"/>
<feColorMatrix in="SourceAlpha" type="matrix" values="0 0 0 0 0 0 0 0 0 0 0 0 0 0 0 0 0 0 127 0" result="hardAlpha"/>
<feOffset dx="-21" dy="15"/>
<feGaussianBlur stdDeviation="25"/>
<feComposite in2="hardAlpha" operator="out"/>
<feColorMatrix type="matrix" values="0 0 0 0 0.113438 0 0 0 0 0.148981 0 0 0 0 0.275 0 0 0 0.25 0"/>
<feBlend mode="normal" in2="effect1_backgroundBlur_2_173" result="effect2_dropShadow_2_173"/>
<feColorMatrix in="SourceAlpha" type="matrix" values="0 0 0 0 0 0 0 0 0 0 0 0 0 0 0 0 0 0 127 0" result="hardAlpha"/>
<feOffset dy="-7"/>
<feGaussianBlur stdDeviation="20.5"/>
<feComposite in2="hardAlpha" operator="out"/>
<feColorMatrix type="matrix" values="0 0 0 0 0.1375 0 0 0 0 0.74125 0 0 0 0 1 0 0 0 0.3 0"/>
<feBlend mode="normal" in2="effect2_dropShadow_2_173" result="effect3_dropShadow_2_173"/>
<feBlend mode="normal" in="SourceGraphic" in2="effect3_dropShadow_2_173" result="shape"/>
</filter>
<linearGradient id="paint0_linear_2_173" x1="188" y1="114.5" x2="188" y2="240.5" gradientUnits="userSpaceOnUse">
<stop stop-color="white"/>
<stop offset="1" stop-color="white" stop-opacity="0"/>
</linearGradient>
<linearGradient id="paint1_linear_2_173" x1="180" y1="111" x2="180" y2="227.353" gradientUnits="userSpaceOnUse">
<stop stop-color="white"/>
<stop offset="1" stop-color="white" stop-opacity="0"/>
</linearGradient>
<linearGradient id="paint2_linear_2_173" x1="253" y1="94.5" x2="253" y2="329.5" gradientUnits="userSpaceOnUse">
<stop stop-color="white"/>
<stop offset="1" stop-color="white" stop-opacity="0"/>
</linearGradient>
<linearGradient id="paint3_linear_2_173" x1="253" y1="146" x2="253" y2="307" gradientUnits="userSpaceOnUse">
<stop stop-color="white"/>
<stop offset="1" stop-color="white" stop-opacity="0"/>
</linearGradient>
<linearGradient id="paint4_linear_2_173" x1="362.5" y1="245" x2="337.5" y2="353.5" gradientUnits="userSpaceOnUse">
<stop stop-color="#FF4D00"/>
<stop offset="1" stop-color="#FFB800"/>
</linearGradient>
<linearGradient id="paint5_linear_2_173" x1="329" y1="352" x2="374.5" y2="254.5" gradientUnits="userSpaceOnUse">
<stop stop-color="white"/>
<stop offset="1" stop-color="white" stop-opacity="0"/>
</linearGradient>
<linearGradient id="paint6_linear_2_173" x1="360" y1="149.5" x2="360" y2="275.5" gradientUnits="userSpaceOnUse">
<stop stop-color="white"/>
<stop offset="1" stop-color="white" stop-opacity="0"/>
</linearGradient>
<linearGradient id="paint7_linear_2_173" x1="352" y1="146" x2="352" y2="262.353" gradientUnits="userSpaceOnUse">
<stop stop-color="white"/>
<stop offset="1" stop-color="white" stop-opacity="0"/>
</linearGradient>
<linearGradient id="paint8_linear_2_173" x1="149.905" y1="305.585" x2="135.359" y2="353.404" gradientUnits="userSpaceOnUse">
<stop stop-color="#138EFF"/>
<stop offset="1" stop-color="#00E0FF"/>
</linearGradient>
<linearGradient id="paint9_linear_2_173" x1="149.905" y1="305.585" x2="135.359" y2="353.404" gradientUnits="userSpaceOnUse">
<stop stop-color="white"/>
<stop offset="1" stop-color="white" stop-opacity="0"/>
</linearGradient>
<linearGradient id="paint10_linear_2_173" x1="207.413" y1="305.585" x2="192.867" y2="353.404" gradientUnits="userSpaceOnUse">
<stop stop-color="#138EFF"/>
<stop offset="1" stop-color="#00E0FF"/>
</linearGradient>
<linearGradient id="paint11_linear_2_173" x1="207.413" y1="305.585" x2="192.867" y2="353.404" gradientUnits="userSpaceOnUse">
<stop stop-color="white"/>
<stop offset="1" stop-color="white" stop-opacity="0"/>
</linearGradient>
<linearGradient id="paint12_linear_2_173" x1="264.92" y1="305.585" x2="250.374" y2="353.404" gradientUnits="userSpaceOnUse">
<stop stop-color="#138EFF"/>
<stop offset="1" stop-color="#00E0FF"/>
</linearGradient>
<linearGradient id="paint13_linear_2_173" x1="264.92" y1="305.585" x2="250.374" y2="353.404" gradientUnits="userSpaceOnUse">
<stop stop-color="white"/>
<stop offset="1" stop-color="white" stop-opacity="0"/>
</linearGradient>
<linearGradient id="paint14_linear_2_173" x1="171.905" y1="351.105" x2="157.359" y2="398.925" gradientUnits="userSpaceOnUse">
<stop stop-color="#138EFF"/>
<stop offset="1" stop-color="#00E0FF"/>
</linearGradient>
<linearGradient id="paint15_linear_2_173" x1="171.905" y1="351.105" x2="157.359" y2="398.925" gradientUnits="userSpaceOnUse">
<stop stop-color="white"/>
<stop offset="1" stop-color="white" stop-opacity="0"/>
</linearGradient>
<linearGradient id="paint16_linear_2_173" x1="229.905" y1="351.105" x2="215.359" y2="398.925" gradientUnits="userSpaceOnUse">
<stop stop-color="#138EFF"/>
<stop offset="1" stop-color="#00E0FF"/>
</linearGradient>
<linearGradient id="paint17_linear_2_173" x1="229.905" y1="351.105" x2="215.359" y2="398.925" gradientUnits="userSpaceOnUse">
<stop stop-color="white"/>
<stop offset="1" stop-color="white" stop-opacity="0"/>
</linearGradient>
</defs>
</svg>
