<svg width="531" height="531" viewBox="0 0 531 531" fill="none" xmlns="http://www.w3.org/2000/svg">
<g filter="url(#filter0_bdd_2_322)">
<mask id="path-1-inside-1_2_322" fill="white">
<path fill-rule="evenodd" clip-rule="evenodd" d="M332.815 162.456C336.269 161.944 338.329 166.018 336.42 168.94C323.481 188.738 321.258 214.736 332.849 237.271C348.144 267.007 382.332 280.682 413.212 271.177C416.552 270.149 419.897 273.261 418.446 276.44C411.148 292.424 398.626 306.162 381.787 314.823C341.957 335.311 293.06 319.63 272.572 279.8C252.085 239.97 267.765 191.073 307.596 170.585C315.73 166.401 324.243 163.725 332.815 162.456Z"/>
</mask>
<path fill-rule="evenodd" clip-rule="evenodd" d="M332.815 162.456C336.269 161.944 338.329 166.018 336.42 168.94C323.481 188.738 321.258 214.736 332.849 237.271C348.144 267.007 382.332 280.682 413.212 271.177C416.552 270.149 419.897 273.261 418.446 276.44C411.148 292.424 398.626 306.162 381.787 314.823C341.957 335.311 293.06 319.63 272.572 279.8C252.085 239.97 267.765 191.073 307.596 170.585C315.73 166.401 324.243 163.725 332.815 162.456Z" fill="url(#paint0_linear_2_322)"/>
<path d="M332.815 162.456L333.108 164.434L332.815 162.456ZM334.627 236.357C323.378 214.487 325.532 189.255 338.094 170.035L334.745 167.846C321.429 188.222 319.137 214.986 331.07 238.186L334.627 236.357ZM412.624 269.265C382.654 278.49 349.471 265.215 334.627 236.357L331.07 238.186C346.816 268.798 382.011 282.873 413.801 273.088L412.624 269.265ZM416.627 275.609C409.508 291.199 397.297 304.596 380.872 313.045L382.702 316.602C399.954 307.728 412.787 293.648 420.265 277.27L416.627 275.609ZM380.872 313.045C342.024 333.027 294.333 317.733 274.351 278.885L270.794 280.715C291.786 321.527 341.89 337.595 382.702 316.602L380.872 313.045ZM274.351 278.885C254.369 240.037 269.662 192.346 308.51 172.364L306.681 168.807C265.868 189.799 249.801 239.902 270.794 280.715L274.351 278.885ZM308.51 172.364C316.448 168.281 324.75 165.672 333.108 164.434L332.522 160.477C323.736 161.778 315.013 164.521 306.681 168.807L308.51 172.364ZM413.801 273.088C414.724 272.804 415.644 273.091 416.229 273.662C416.782 274.203 416.955 274.89 416.627 275.609L420.265 277.27C421.388 274.811 420.614 272.353 419.023 270.8C417.462 269.276 415.04 268.521 412.624 269.265L413.801 273.088ZM338.094 170.035C339.476 167.92 339.421 165.385 338.391 163.465C337.34 161.507 335.195 160.081 332.522 160.477L333.108 164.434C333.888 164.319 334.501 164.674 334.866 165.356C335.252 166.075 335.273 167.038 334.745 167.846L338.094 170.035Z" fill="url(#paint1_linear_2_322)" mask="url(#path-1-inside-1_2_322)"/>
</g>
<g filter="url(#filter1_bd_2_322)">
<mask id="path-3-inside-2_2_322" fill="white">
<path fill-rule="evenodd" clip-rule="evenodd" d="M333.033 384.617C333.184 384.619 333.336 384.62 333.488 384.62C355.045 384.62 372.521 367.144 372.521 345.587C372.521 324.029 355.045 306.553 333.488 306.553C333.336 306.553 333.184 306.554 333.033 306.556V306.553H322.95C323.314 303.882 323.502 301.155 323.502 298.383C323.502 265.295 296.679 238.472 263.591 238.472C230.503 238.472 203.679 265.295 203.679 298.383C203.679 301.506 203.918 304.572 204.378 307.565C201.529 306.903 198.56 306.553 195.51 306.553C173.952 306.553 156.476 324.029 156.476 345.587C156.476 367.144 173.952 384.62 195.51 384.62C195.662 384.62 195.813 384.619 195.965 384.617L195.963 384.62H333.033V384.617Z"/>
</mask>
<path fill-rule="evenodd" clip-rule="evenodd" d="M333.033 384.617C333.184 384.619 333.336 384.62 333.488 384.62C355.045 384.62 372.521 367.144 372.521 345.587C372.521 324.029 355.045 306.553 333.488 306.553C333.336 306.553 333.184 306.554 333.033 306.556V306.553H322.95C323.314 303.882 323.502 301.155 323.502 298.383C323.502 265.295 296.679 238.472 263.591 238.472C230.503 238.472 203.679 265.295 203.679 298.383C203.679 301.506 203.918 304.572 204.378 307.565C201.529 306.903 198.56 306.553 195.51 306.553C173.952 306.553 156.476 324.029 156.476 345.587C156.476 367.144 173.952 384.62 195.51 384.62C195.662 384.62 195.813 384.619 195.965 384.617L195.963 384.62H333.033V384.617Z" fill="url(#paint2_linear_2_322)" shape-rendering="crispEdges"/>
<path d="M333.033 384.617L333.056 382.618C332.521 382.612 332.007 382.82 331.627 383.195C331.247 383.571 331.033 384.083 331.033 384.617H333.033ZM333.033 306.556H331.033C331.033 307.091 331.247 307.603 331.627 307.978C332.007 308.354 332.521 308.562 333.056 308.556L333.033 306.556ZM333.033 306.554H335.033C335.033 305.449 334.137 304.554 333.033 304.554V306.554ZM322.95 306.554L320.968 306.283C320.89 306.856 321.063 307.434 321.443 307.869C321.823 308.304 322.372 308.554 322.95 308.554V306.554ZM204.378 307.566L203.926 309.514C204.572 309.664 205.251 309.483 205.738 309.032C206.225 308.581 206.456 307.918 206.355 307.261L204.378 307.566ZM195.965 384.617L197.534 385.857C198.012 385.252 198.1 384.427 197.76 383.735C197.42 383.044 196.713 382.609 195.942 382.618L195.965 384.617ZM195.963 384.62L194.393 383.381C193.918 383.982 193.829 384.802 194.163 385.492C194.497 386.182 195.196 386.62 195.963 386.62V384.62ZM333.033 384.62V386.62C334.137 386.62 335.033 385.725 335.033 384.62H333.033ZM333.01 386.617C333.169 386.619 333.328 386.62 333.488 386.62V382.62C333.344 382.62 333.199 382.619 333.056 382.618L333.01 386.617ZM333.488 386.62C356.15 386.62 374.521 368.249 374.521 345.587H370.521C370.521 366.04 353.941 382.62 333.488 382.62V386.62ZM374.521 345.587C374.521 322.925 356.15 304.554 333.488 304.554V308.554C353.941 308.554 370.521 325.134 370.521 345.587H374.521ZM333.488 304.554C333.328 304.554 333.169 304.554 333.01 304.556L333.056 308.556C333.199 308.554 333.343 308.554 333.488 308.554V304.554ZM331.033 306.554V306.556H335.033V306.554H331.033ZM322.95 308.554H333.033V304.554H322.95V308.554ZM324.931 306.824C325.308 304.063 325.502 301.245 325.502 298.383H321.502C321.502 301.064 321.32 303.701 320.968 306.283L324.931 306.824ZM325.502 298.383C325.502 264.191 297.783 236.472 263.591 236.472V240.472C295.574 240.472 321.502 266.4 321.502 298.383H325.502ZM263.591 236.472C229.398 236.472 201.679 264.191 201.679 298.383H205.679C205.679 266.4 231.607 240.472 263.591 240.472V236.472ZM201.679 298.383C201.679 301.608 201.926 304.776 202.402 307.87L206.355 307.261C205.91 304.368 205.679 301.404 205.679 298.383H201.679ZM204.831 305.617C201.834 304.921 198.714 304.554 195.51 304.554V308.554C198.407 308.554 201.224 308.886 203.926 309.514L204.831 305.617ZM195.51 304.554C172.848 304.554 154.476 322.925 154.476 345.587H158.476C158.476 325.134 175.057 308.554 195.51 308.554V304.554ZM154.476 345.587C154.476 368.249 172.848 386.62 195.51 386.62V382.62C175.057 382.62 158.476 366.04 158.476 345.587H154.476ZM195.51 386.62C195.669 386.62 195.829 386.619 195.988 386.617L195.942 382.618C195.798 382.619 195.654 382.62 195.51 382.62V386.62ZM197.532 385.86L197.534 385.857L194.395 383.378L194.393 383.381L197.532 385.86ZM333.033 382.62H195.963V386.62H333.033V382.62ZM331.033 384.617V384.62H335.033V384.617H331.033Z" fill="url(#paint3_linear_2_322)" mask="url(#path-3-inside-2_2_322)"/>
</g>
<defs>
<filter id="filter0_bdd_2_322" x="192.574" y="124.412" width="264.22" height="264.41" filterUnits="userSpaceOnUse" color-interpolation-filters="sRGB">
<feFlood flood-opacity="0" result="BackgroundImageFix"/>
<feGaussianBlur in="BackgroundImageFix" stdDeviation="7"/>
<feComposite in2="SourceAlpha" operator="in" result="effect1_backgroundBlur_2_322"/>
<feColorMatrix in="SourceAlpha" type="matrix" values="0 0 0 0 0 0 0 0 0 0 0 0 0 0 0 0 0 0 127 0" result="hardAlpha"/>
<feOffset dx="-21" dy="15"/>
<feGaussianBlur stdDeviation="25"/>
<feComposite in2="hardAlpha" operator="out"/>
<feColorMatrix type="matrix" values="0 0 0 0 0.113438 0 0 0 0 0.148981 0 0 0 0 0.275 0 0 0 0.25 0"/>
<feBlend mode="normal" in2="effect1_backgroundBlur_2_322" result="effect2_dropShadow_2_322"/>
<feColorMatrix in="SourceAlpha" type="matrix" values="0 0 0 0 0 0 0 0 0 0 0 0 0 0 0 0 0 0 127 0" result="hardAlpha"/>
<feOffset/>
<feGaussianBlur stdDeviation="19"/>
<feComposite in2="hardAlpha" operator="out"/>
<feColorMatrix type="matrix" values="0 0 0 0 0.619608 0 0 0 0 0.423529 0 0 0 0 1 0 0 0 0.4 0"/>
<feBlend mode="normal" in2="effect2_dropShadow_2_322" result="effect3_dropShadow_2_322"/>
<feBlend mode="normal" in="SourceGraphic" in2="effect3_dropShadow_2_322" result="shape"/>
</filter>
<filter id="filter1_bd_2_322" x="85.4764" y="203.472" width="316.045" height="246.148" filterUnits="userSpaceOnUse" color-interpolation-filters="sRGB">
<feFlood flood-opacity="0" result="BackgroundImageFix"/>
<feGaussianBlur in="BackgroundImageFix" stdDeviation="7"/>
<feComposite in2="SourceAlpha" operator="in" result="effect1_backgroundBlur_2_322"/>
<feColorMatrix in="SourceAlpha" type="matrix" values="0 0 0 0 0 0 0 0 0 0 0 0 0 0 0 0 0 0 127 0" result="hardAlpha"/>
<feOffset dx="-21" dy="15"/>
<feGaussianBlur stdDeviation="25"/>
<feComposite in2="hardAlpha" operator="out"/>
<feColorMatrix type="matrix" values="0 0 0 0 0.113438 0 0 0 0 0.148981 0 0 0 0 0.275 0 0 0 0.25 0"/>
<feBlend mode="normal" in2="effect1_backgroundBlur_2_322" result="effect2_dropShadow_2_322"/>
<feBlend mode="normal" in="SourceGraphic" in2="effect2_dropShadow_2_322" result="shape"/>
</filter>
<linearGradient id="paint0_linear_2_322" x1="292.437" y1="179.989" x2="366.629" y2="324.227" gradientUnits="userSpaceOnUse">
<stop offset="0.0001" stop-color="#D4C0FF"/>
<stop offset="1" stop-color="#7E2FFF"/>
</linearGradient>
<linearGradient id="paint1_linear_2_322" x1="300.514" y1="100.677" x2="346.659" y2="289.979" gradientUnits="userSpaceOnUse">
<stop stop-color="white"/>
<stop offset="1" stop-color="white" stop-opacity="0"/>
</linearGradient>
<linearGradient id="paint2_linear_2_322" x1="274.547" y1="242.868" x2="274.547" y2="401.134" gradientUnits="userSpaceOnUse">
<stop stop-color="white"/>
<stop offset="1" stop-color="white" stop-opacity="0"/>
</linearGradient>
<linearGradient id="paint3_linear_2_322" x1="264.499" y1="238.472" x2="264.499" y2="384.62" gradientUnits="userSpaceOnUse">
<stop stop-color="white"/>
<stop offset="1" stop-color="white" stop-opacity="0"/>
</linearGradient>
</defs>
</svg>
