<svg width="531" height="531" viewBox="0 0 531 531" fill="none" xmlns="http://www.w3.org/2000/svg">
<g filter="url(#filter0_bdd_2_300)">
<mask id="path-1-inside-1_2_300" fill="white">
<path fill-rule="evenodd" clip-rule="evenodd" d="M254.019 140.137C257.456 139.528 259.545 143.596 257.735 146.581C248.264 162.202 246.89 182.229 255.858 199.664C267.797 222.874 294.132 233.847 318.348 227.286C321.721 226.372 325.054 229.51 323.513 232.646C317.585 244.715 307.865 255.051 294.989 261.674C263.141 278.056 224.043 265.518 207.662 233.67C191.28 201.822 203.818 162.724 235.666 146.343C241.597 143.292 247.779 141.244 254.019 140.137Z"/>
</mask>
<path fill-rule="evenodd" clip-rule="evenodd" d="M254.019 140.137C257.456 139.528 259.545 143.596 257.735 146.581C248.264 162.202 246.89 182.229 255.858 199.664C267.797 222.874 294.132 233.847 318.348 227.286C321.721 226.372 325.054 229.51 323.513 232.646C317.585 244.715 307.865 255.051 294.989 261.674C263.141 278.056 224.043 265.518 207.662 233.67C191.28 201.822 203.818 162.724 235.666 146.343C241.597 143.292 247.779 141.244 254.019 140.137Z" fill="url(#paint0_linear_2_300)"/>
<path d="M323.513 232.646L325.308 233.527L323.513 232.646ZM257.637 198.75C249 181.958 250.32 162.669 259.445 147.618L256.025 145.545C246.208 161.734 244.781 182.5 254.08 200.579L257.637 198.75ZM317.825 225.356C294.5 231.675 269.135 221.103 257.637 198.75L254.08 200.579C266.459 224.646 293.763 236.019 318.871 229.216L317.825 225.356ZM321.718 231.764C315.973 243.461 306.555 253.476 294.074 259.896L295.904 263.453C309.175 256.626 319.197 245.969 325.308 233.527L321.718 231.764ZM294.074 259.896C263.208 275.772 225.316 263.621 209.44 232.755L205.883 234.585C222.77 267.415 263.074 280.34 295.904 263.453L294.074 259.896ZM209.44 232.755C193.564 201.889 205.715 163.997 236.581 148.121L234.751 144.564C201.921 161.451 188.996 201.755 205.883 234.585L209.44 232.755ZM236.581 148.121C242.332 145.163 248.323 143.179 254.368 142.107L253.669 138.168C247.235 139.31 240.862 141.421 234.751 144.564L236.581 148.121ZM318.871 229.216C319.825 228.958 320.773 229.275 321.359 229.862C321.908 230.411 322.057 231.075 321.718 231.764L325.308 233.527C326.51 231.08 325.762 228.608 324.187 227.033C322.649 225.495 320.244 224.7 317.825 225.356L318.871 229.216ZM259.445 147.618C260.743 145.477 260.646 142.948 259.595 141.045C258.519 139.096 256.352 137.692 253.669 138.168L254.368 142.107C255.123 141.973 255.719 142.299 256.094 142.978C256.494 143.703 256.536 144.701 256.025 145.545L259.445 147.618Z" fill="url(#paint1_linear_2_300)" mask="url(#path-1-inside-1_2_300)"/>
</g>
<mask id="mask0_2_300" style="mask-type:alpha" maskUnits="userSpaceOnUse" x="227" y="222" width="118" height="85">
<path d="M345 248C345 280.585 318.585 307 286 307C253.415 307 227 280.585 227 248C227 215.415 248.915 223 281.5 223C314.085 223 345 215.415 345 248Z" fill="url(#paint2_linear_2_300)"/>
</mask>
<g mask="url(#mask0_2_300)">
<g filter="url(#filter1_f_2_300)">
<path fill-rule="evenodd" clip-rule="evenodd" d="M181.502 398.997C181.335 398.999 181.168 399 181 399C157.252 399 138 379.748 138 356C138 332.252 157.252 313 181 313C201.47 313 218.6 327.304 222.938 346.462L237.5 328L283 313H332.5V313.003C332.666 313.001 332.833 313 333 313C356.748 313 376 332.252 376 356C376 379.748 356.748 399 333 399C332.833 399 332.666 398.999 332.5 398.997V399H181.5L181.502 398.997Z" fill="#E18700"/>
</g>
</g>
<g filter="url(#filter2_bd_2_300)">
<mask id="path-5-inside-2_2_300" fill="white">
<path fill-rule="evenodd" clip-rule="evenodd" d="M307.5 403.997C307.666 403.999 307.833 404 308 404C331.748 404 351 384.748 351 361C351 337.252 331.748 318 308 318C307.833 318 307.666 318.001 307.5 318.003V318H296.391C296.793 315.057 297 312.053 297 309C297 272.549 267.451 243 231 243C194.549 243 165 272.549 165 309C165 312.439 165.263 315.817 165.77 319.115C162.631 318.386 159.361 318 156 318C132.252 318 113 337.252 113 361C113 384.748 132.252 404 156 404C156.168 404 156.335 403.999 156.502 403.997L156.5 404H307.5V403.997Z"/>
</mask>
<path fill-rule="evenodd" clip-rule="evenodd" d="M307.5 403.997C307.666 403.999 307.833 404 308 404C331.748 404 351 384.748 351 361C351 337.252 331.748 318 308 318C307.833 318 307.666 318.001 307.5 318.003V318H296.391C296.793 315.057 297 312.053 297 309C297 272.549 267.451 243 231 243C194.549 243 165 272.549 165 309C165 312.439 165.263 315.817 165.77 319.115C162.631 318.386 159.361 318 156 318C132.252 318 113 337.252 113 361C113 384.748 132.252 404 156 404C156.168 404 156.335 403.999 156.502 403.997L156.5 404H307.5V403.997Z" fill="url(#paint3_linear_2_300)" shape-rendering="crispEdges"/>
<path d="M307.5 403.997L307.523 401.997C306.988 401.991 306.474 402.199 306.094 402.575C305.714 402.951 305.5 403.463 305.5 403.997H307.5ZM307.5 318.003H305.5C305.5 318.537 305.714 319.049 306.094 319.425C306.474 319.801 306.988 320.009 307.523 320.003L307.5 318.003ZM307.5 318H309.5C309.5 316.895 308.605 316 307.5 316V318ZM296.391 318L294.41 317.73C294.332 318.302 294.505 318.88 294.885 319.315C295.265 319.75 295.814 320 296.391 320V318ZM165.77 319.115L165.318 321.063C165.964 321.213 166.643 321.033 167.13 320.582C167.617 320.13 167.848 319.467 167.747 318.811L165.77 319.115ZM156.502 403.997L158.072 405.237C158.549 404.632 158.637 403.807 158.297 403.115C157.957 402.423 157.25 401.988 156.479 401.997L156.502 403.997ZM156.5 404L154.931 402.76C154.455 403.362 154.366 404.182 154.7 404.872C155.034 405.562 155.733 406 156.5 406V404ZM307.5 404V406C308.605 406 309.5 405.105 309.5 404H307.5ZM307.477 405.997C307.651 405.999 307.825 406 308 406V402C307.841 402 307.682 401.999 307.523 401.997L307.477 405.997ZM308 406C332.853 406 353 385.853 353 361H349C349 383.644 330.644 402 308 402V406ZM353 361C353 336.147 332.853 316 308 316V320C330.644 320 349 338.356 349 361H353ZM308 316C307.826 316 307.651 316.001 307.477 316.003L307.523 320.003C307.682 320.001 307.841 320 308 320V316ZM305.5 318V318.003H309.5V318H305.5ZM296.391 320H307.5V316H296.391V320ZM298.373 318.27C298.787 315.238 299 312.143 299 309H295C295 311.962 294.799 314.876 294.41 317.73L298.373 318.27ZM299 309C299 271.445 268.555 241 231 241V245C266.346 245 295 273.654 295 309H299ZM231 241C193.445 241 163 271.445 163 309H167C167 273.654 195.654 245 231 245V241ZM163 309C163 312.542 163.271 316.021 163.793 319.419L167.747 318.811C167.255 315.614 167 312.337 167 309H163ZM166.223 317.167C162.937 316.403 159.514 316 156 316V320C159.207 320 162.326 320.368 165.318 321.063L166.223 317.167ZM156 316C131.147 316 111 336.147 111 361H115C115 338.356 133.356 320 156 320V316ZM111 361C111 385.853 131.147 406 156 406V402C133.356 402 115 383.644 115 361H111ZM156 406C156.175 406 156.35 405.999 156.525 405.997L156.479 401.997C156.32 401.999 156.16 402 156 402V406ZM158.069 405.24L158.072 405.237L154.933 402.757L154.931 402.76L158.069 405.24ZM307.5 402H156.5V406H307.5V402ZM305.5 403.997V404H309.5V403.997H305.5Z" fill="url(#paint4_linear_2_300)" mask="url(#path-5-inside-2_2_300)"/>
</g>
<g filter="url(#filter3_bd_2_300)">
<mask id="path-7-inside-3_2_300" fill="white">
<path fill-rule="evenodd" clip-rule="evenodd" d="M385.563 359.351C385.683 359.352 385.804 359.353 385.924 359.353C403.087 359.353 417 345.44 417 328.277C417 311.115 403.087 297.202 385.924 297.202C385.804 297.202 385.683 297.202 385.563 297.204V297.202H377.535C377.825 295.075 377.975 292.904 377.975 290.697C377.975 264.355 356.62 243 330.277 243C303.935 243 282.58 264.355 282.58 290.697C282.58 293.183 282.77 295.624 283.136 298.007C280.868 297.48 278.504 297.202 276.076 297.202C258.913 297.202 245 311.115 245 328.277C245 345.44 258.913 359.353 276.076 359.353C276.197 359.353 276.318 359.352 276.439 359.351L276.437 359.353H385.563V359.351Z"/>
</mask>
<path fill-rule="evenodd" clip-rule="evenodd" d="M385.563 359.351C385.683 359.352 385.804 359.353 385.924 359.353C403.087 359.353 417 345.44 417 328.277C417 311.115 403.087 297.202 385.924 297.202C385.804 297.202 385.683 297.202 385.563 297.204V297.202H377.535C377.825 295.075 377.975 292.904 377.975 290.697C377.975 264.355 356.62 243 330.277 243C303.935 243 282.58 264.355 282.58 290.697C282.58 293.183 282.77 295.624 283.136 298.007C280.868 297.48 278.504 297.202 276.076 297.202C258.913 297.202 245 311.115 245 328.277C245 345.44 258.913 359.353 276.076 359.353C276.197 359.353 276.318 359.352 276.439 359.351L276.437 359.353H385.563V359.351Z" fill="url(#paint5_linear_2_300)" shape-rendering="crispEdges"/>
<path d="M385.563 359.351L385.586 357.351C385.052 357.345 384.537 357.553 384.157 357.929C383.777 358.304 383.563 358.816 383.563 359.351H385.563ZM385.563 297.204H383.563C383.563 297.738 383.777 298.25 384.157 298.626C384.537 299.002 385.051 299.21 385.586 299.204L385.563 297.204ZM385.563 297.202H387.563C387.563 296.097 386.668 295.202 385.563 295.202V297.202ZM377.535 297.202L375.553 296.931C375.475 297.504 375.649 298.082 376.028 298.517C376.408 298.952 376.957 299.202 377.535 299.202V297.202ZM283.136 298.007L282.684 299.955C283.33 300.106 284.009 299.925 284.496 299.474C284.983 299.023 285.214 298.359 285.113 297.703L283.136 298.007ZM276.439 359.351L278.008 360.59C278.486 359.985 278.573 359.16 278.233 358.468C277.893 357.777 277.186 357.342 276.416 357.351L276.439 359.351ZM276.437 359.353L274.867 358.114C274.392 358.715 274.303 359.535 274.637 360.225C274.971 360.915 275.67 361.353 276.437 361.353V359.353ZM385.563 359.353V361.353C386.668 361.353 387.563 360.458 387.563 359.353H385.563ZM385.54 361.351C385.668 361.352 385.796 361.353 385.924 361.353V357.353C385.811 357.353 385.699 357.352 385.586 357.351L385.54 361.351ZM385.924 361.353C404.192 361.353 419 346.544 419 328.277H415C415 344.335 401.982 357.353 385.924 357.353V361.353ZM419 328.277C419 310.01 404.192 295.202 385.924 295.202V299.202C401.982 299.202 415 312.219 415 328.277H419ZM385.924 295.202C385.796 295.202 385.668 295.202 385.54 295.204L385.586 299.204C385.699 299.202 385.811 299.202 385.924 299.202V295.202ZM383.563 297.202V297.204H387.563V297.202H383.563ZM377.535 299.202H385.563V295.202H377.535V299.202ZM379.517 297.472C379.819 295.256 379.975 292.994 379.975 290.697H375.975C375.975 292.813 375.831 294.894 375.553 296.931L379.517 297.472ZM379.975 290.697C379.975 263.25 357.724 241 330.277 241V245C355.515 245 375.975 265.459 375.975 290.697H379.975ZM330.277 241C302.83 241 280.58 263.25 280.58 290.697H284.58C284.58 265.459 305.039 245 330.277 245V241ZM280.58 290.697C280.58 293.285 280.778 295.828 281.16 298.311L285.113 297.703C284.762 295.421 284.58 293.081 284.58 290.697H280.58ZM283.589 296.059C281.173 295.498 278.658 295.202 276.076 295.202V299.202C278.351 299.202 280.563 299.463 282.684 299.955L283.589 296.059ZM276.076 295.202C257.808 295.202 243 310.01 243 328.277H247C247 312.219 260.018 299.202 276.076 299.202V295.202ZM243 328.277C243 346.544 257.808 361.353 276.076 361.353V357.353C260.018 357.353 247 344.335 247 328.277H243ZM276.076 361.353C276.204 361.353 276.333 361.352 276.461 361.351L276.416 357.351C276.303 357.352 276.189 357.353 276.076 357.353V361.353ZM278.007 360.592L278.008 360.59L274.869 358.112L274.867 358.114L278.007 360.592ZM385.563 357.353H276.437V361.353H385.563V357.353ZM383.563 359.351V359.353H387.563V359.351H383.563Z" fill="url(#paint6_linear_2_300)" mask="url(#path-7-inside-3_2_300)"/>
</g>
<defs>
<filter id="filter0_bdd_2_300" x="129.467" y="102.076" width="232.434" height="231.793" filterUnits="userSpaceOnUse" color-interpolation-filters="sRGB">
<feFlood flood-opacity="0" result="BackgroundImageFix"/>
<feGaussianBlur in="BackgroundImageFix" stdDeviation="7"/>
<feComposite in2="SourceAlpha" operator="in" result="effect1_backgroundBlur_2_300"/>
<feColorMatrix in="SourceAlpha" type="matrix" values="0 0 0 0 0 0 0 0 0 0 0 0 0 0 0 0 0 0 127 0" result="hardAlpha"/>
<feOffset dx="-21" dy="15"/>
<feGaussianBlur stdDeviation="25"/>
<feComposite in2="hardAlpha" operator="out"/>
<feColorMatrix type="matrix" values="0 0 0 0 0.113438 0 0 0 0 0.148981 0 0 0 0 0.275 0 0 0 0.25 0"/>
<feBlend mode="normal" in2="effect1_backgroundBlur_2_300" result="effect2_dropShadow_2_300"/>
<feColorMatrix in="SourceAlpha" type="matrix" values="0 0 0 0 0 0 0 0 0 0 0 0 0 0 0 0 0 0 127 0" result="hardAlpha"/>
<feOffset/>
<feGaussianBlur stdDeviation="19"/>
<feComposite in2="hardAlpha" operator="out"/>
<feColorMatrix type="matrix" values="0 0 0 0 0.619608 0 0 0 0 0.423529 0 0 0 0 1 0 0 0 0.4 0"/>
<feBlend mode="normal" in2="effect2_dropShadow_2_300" result="effect3_dropShadow_2_300"/>
<feBlend mode="normal" in="SourceGraphic" in2="effect3_dropShadow_2_300" result="shape"/>
</filter>
<filter id="filter1_f_2_300" x="124" y="299" width="266" height="114" filterUnits="userSpaceOnUse" color-interpolation-filters="sRGB">
<feFlood flood-opacity="0" result="BackgroundImageFix"/>
<feBlend mode="normal" in="SourceGraphic" in2="BackgroundImageFix" result="shape"/>
<feGaussianBlur stdDeviation="7" result="effect1_foregroundBlur_2_300"/>
</filter>
<filter id="filter2_bd_2_300" x="42" y="208" width="338" height="261" filterUnits="userSpaceOnUse" color-interpolation-filters="sRGB">
<feFlood flood-opacity="0" result="BackgroundImageFix"/>
<feGaussianBlur in="BackgroundImageFix" stdDeviation="7"/>
<feComposite in2="SourceAlpha" operator="in" result="effect1_backgroundBlur_2_300"/>
<feColorMatrix in="SourceAlpha" type="matrix" values="0 0 0 0 0 0 0 0 0 0 0 0 0 0 0 0 0 0 127 0" result="hardAlpha"/>
<feOffset dx="-21" dy="15"/>
<feGaussianBlur stdDeviation="25"/>
<feComposite in2="hardAlpha" operator="out"/>
<feColorMatrix type="matrix" values="0 0 0 0 0.113725 0 0 0 0 0.14902 0 0 0 0 0.27451 0 0 0 0.25 0"/>
<feBlend mode="normal" in2="effect1_backgroundBlur_2_300" result="effect2_dropShadow_2_300"/>
<feBlend mode="normal" in="SourceGraphic" in2="effect2_dropShadow_2_300" result="shape"/>
</filter>
<filter id="filter3_bd_2_300" x="174" y="208" width="272" height="216.353" filterUnits="userSpaceOnUse" color-interpolation-filters="sRGB">
<feFlood flood-opacity="0" result="BackgroundImageFix"/>
<feGaussianBlur in="BackgroundImageFix" stdDeviation="7"/>
<feComposite in2="SourceAlpha" operator="in" result="effect1_backgroundBlur_2_300"/>
<feColorMatrix in="SourceAlpha" type="matrix" values="0 0 0 0 0 0 0 0 0 0 0 0 0 0 0 0 0 0 127 0" result="hardAlpha"/>
<feOffset dx="-21" dy="15"/>
<feGaussianBlur stdDeviation="25"/>
<feComposite in2="hardAlpha" operator="out"/>
<feColorMatrix type="matrix" values="0 0 0 0 0.113438 0 0 0 0 0.148981 0 0 0 0 0.275 0 0 0 0.25 0"/>
<feBlend mode="normal" in2="effect1_backgroundBlur_2_300" result="effect2_dropShadow_2_300"/>
<feBlend mode="normal" in="SourceGraphic" in2="effect2_dropShadow_2_300" result="shape"/>
</filter>
<linearGradient id="paint0_linear_2_300" x1="223.067" y1="154.108" x2="282.39" y2="269.44" gradientUnits="userSpaceOnUse">
<stop offset="0.0001" stop-color="#D4C0FF"/>
<stop offset="1" stop-color="#7E2FFF"/>
</linearGradient>
<linearGradient id="paint1_linear_2_300" x1="229.197" y1="90.86" x2="265.703" y2="242.225" gradientUnits="userSpaceOnUse">
<stop stop-color="white"/>
<stop offset="1" stop-color="white" stop-opacity="0"/>
</linearGradient>
<linearGradient id="paint2_linear_2_300" x1="286" y1="189" x2="286" y2="307" gradientUnits="userSpaceOnUse">
<stop stop-color="#FFD600"/>
<stop offset="1" stop-color="#FF7A00"/>
</linearGradient>
<linearGradient id="paint3_linear_2_300" x1="232" y1="191.5" x2="232" y2="426.5" gradientUnits="userSpaceOnUse">
<stop stop-color="white"/>
<stop offset="1" stop-color="white" stop-opacity="0"/>
</linearGradient>
<linearGradient id="paint4_linear_2_300" x1="232" y1="243" x2="232" y2="404" gradientUnits="userSpaceOnUse">
<stop stop-color="white"/>
<stop offset="1" stop-color="white" stop-opacity="0"/>
</linearGradient>
<linearGradient id="paint5_linear_2_300" x1="339" y1="246.5" x2="339" y2="372.5" gradientUnits="userSpaceOnUse">
<stop stop-color="white"/>
<stop offset="1" stop-color="white" stop-opacity="0"/>
</linearGradient>
<linearGradient id="paint6_linear_2_300" x1="331" y1="243" x2="331" y2="359.353" gradientUnits="userSpaceOnUse">
<stop stop-color="white"/>
<stop offset="1" stop-color="white" stop-opacity="0"/>
</linearGradient>
</defs>
</svg>
