<svg width="531" height="531" viewBox="0 0 531 531" fill="none" xmlns="http://www.w3.org/2000/svg">
<g filter="url(#filter0_f_2_54)">
<circle cx="221.62" cy="232.62" r="76.6203" fill="#FFC701" fill-opacity="0.5"/>
</g>
<circle cx="221.62" cy="235.132" r="73.1083" fill="url(#paint0_linear_2_54)" stroke="url(#paint1_linear_2_54)" stroke-width="2"/>
<mask id="mask0_2_54" style="mask-type:alpha" maskUnits="userSpaceOnUse" x="147" y="202" width="149" height="108">
<path d="M295.729 235.133C295.729 276.061 262.549 309.241 221.62 309.241C180.691 309.241 147.512 276.061 147.512 235.133C147.512 194.204 175.039 203.731 215.968 203.731C256.897 203.731 295.729 194.204 295.729 235.133Z" fill="url(#paint2_linear_2_54)"/>
</mask>
<g mask="url(#mask0_2_54)">
<g filter="url(#filter1_f_2_54)">
<path fill-rule="evenodd" clip-rule="evenodd" d="M334.667 370.788C334.667 400.618 310.486 424.799 280.656 424.799C280.446 424.799 280.237 424.798 280.028 424.796V424.799H90.3611L90.3635 424.796C90.1536 424.799 89.9433 424.8 89.7328 424.8C59.9033 424.8 35.7217 400.618 35.7217 370.789C35.7217 340.959 59.9033 316.778 89.7328 316.778C115.445 316.778 136.961 334.744 142.41 358.808L160.701 335.618L217.853 316.777H280.028V316.781C280.237 316.778 280.446 316.777 280.656 316.777C310.486 316.777 334.667 340.959 334.667 370.788Z" fill="#E18700"/>
</g>
</g>
<g filter="url(#filter2_bd_2_54)">
<mask id="path-5-inside-1_2_54" fill="white">
<path fill-rule="evenodd" clip-rule="evenodd" d="M346.678 374.997C346.829 374.999 346.981 375 347.133 375C368.69 375 386.166 357.524 386.166 335.967C386.166 314.409 368.69 296.933 347.133 296.933C346.981 296.933 346.829 296.934 346.678 296.936V296.933H336.595C336.959 294.262 337.147 291.535 337.147 288.763C337.147 255.675 310.324 228.852 277.236 228.852C244.147 228.852 217.324 255.675 217.324 288.763C217.324 291.885 217.563 294.952 218.023 297.945C215.174 297.283 212.205 296.933 209.155 296.933C187.597 296.933 170.121 314.409 170.121 335.967C170.121 357.524 187.597 375 209.155 375C209.307 375 209.458 374.999 209.61 374.997L209.608 375H346.678V374.997Z"/>
</mask>
<path fill-rule="evenodd" clip-rule="evenodd" d="M346.678 374.997C346.829 374.999 346.981 375 347.133 375C368.69 375 386.166 357.524 386.166 335.967C386.166 314.409 368.69 296.933 347.133 296.933C346.981 296.933 346.829 296.934 346.678 296.936V296.933H336.595C336.959 294.262 337.147 291.535 337.147 288.763C337.147 255.675 310.324 228.852 277.236 228.852C244.147 228.852 217.324 255.675 217.324 288.763C217.324 291.885 217.563 294.952 218.023 297.945C215.174 297.283 212.205 296.933 209.155 296.933C187.597 296.933 170.121 314.409 170.121 335.967C170.121 357.524 187.597 375 209.155 375C209.307 375 209.458 374.999 209.61 374.997L209.608 375H346.678V374.997Z" fill="url(#paint3_linear_2_54)" shape-rendering="crispEdges"/>
<path d="M346.678 374.997L346.701 372.998C346.166 372.991 345.652 373.199 345.272 373.575C344.892 373.951 344.678 374.463 344.678 374.997H346.678ZM346.678 296.936H344.678C344.678 297.47 344.892 297.983 345.272 298.358C345.652 298.734 346.166 298.942 346.701 298.936L346.678 296.936ZM346.678 296.933H348.678C348.678 295.829 347.782 294.933 346.678 294.933V296.933ZM336.595 296.933L334.613 296.663C334.535 297.236 334.708 297.814 335.088 298.249C335.468 298.684 336.017 298.933 336.595 298.933V296.933ZM218.023 297.945L217.571 299.894C218.217 300.044 218.896 299.863 219.383 299.412C219.87 298.961 220.101 298.297 220 297.641L218.023 297.945ZM209.61 374.997L211.179 376.237C211.657 375.632 211.745 374.807 211.405 374.115C211.065 373.424 210.358 372.989 209.587 372.998L209.61 374.997ZM209.608 375L208.038 373.76C207.563 374.362 207.474 375.182 207.808 375.872C208.142 376.562 208.841 377 209.608 377V375ZM346.678 375V377C347.782 377 348.678 376.105 348.678 375H346.678ZM346.655 376.997C346.814 376.999 346.973 377 347.133 377V373C346.988 373 346.844 372.999 346.701 372.998L346.655 376.997ZM347.133 377C369.795 377 388.166 358.629 388.166 335.967H384.166C384.166 356.42 367.586 373 347.133 373V377ZM388.166 335.967C388.166 313.305 369.795 294.933 347.133 294.933V298.933C367.586 298.933 384.166 315.514 384.166 335.967H388.166ZM347.133 294.933C346.973 294.933 346.814 294.934 346.655 294.936L346.701 298.936C346.844 298.934 346.988 298.933 347.133 298.933V294.933ZM344.678 296.933V296.936H348.678V296.933H344.678ZM336.595 298.933H346.678V294.933H336.595V298.933ZM338.576 297.204C338.953 294.443 339.147 291.625 339.147 288.763H335.147C335.147 291.444 334.965 294.081 334.613 296.663L338.576 297.204ZM339.147 288.763C339.147 254.571 311.428 226.852 277.236 226.852V230.852C309.219 230.852 335.147 256.78 335.147 288.763H339.147ZM277.236 226.852C243.043 226.852 215.324 254.571 215.324 288.763H219.324C219.324 256.78 245.252 230.852 277.236 230.852V226.852ZM215.324 288.763C215.324 291.988 215.571 295.156 216.047 298.249L220 297.641C219.555 294.748 219.324 291.783 219.324 288.763H215.324ZM218.476 295.997C215.479 295.301 212.359 294.933 209.155 294.933V298.933C212.052 298.933 214.869 299.266 217.571 299.894L218.476 295.997ZM209.155 294.933C186.493 294.933 168.121 313.305 168.121 335.967H172.121C172.121 315.514 188.702 298.933 209.155 298.933V294.933ZM168.121 335.967C168.121 358.629 186.493 377 209.155 377V373C188.702 373 172.121 356.42 172.121 335.967H168.121ZM209.155 377C209.314 377 209.473 376.999 209.633 376.997L209.587 372.998C209.443 372.999 209.299 373 209.155 373V377ZM211.177 376.24L211.179 376.237L208.04 373.758L208.038 373.76L211.177 376.24ZM346.678 373H209.608V377H346.678V373ZM344.678 374.997V375H348.678V374.997H344.678Z" fill="url(#paint4_linear_2_54)" mask="url(#path-5-inside-1_2_54)"/>
</g>
<defs>
<filter id="filter0_f_2_54" x="101" y="112" width="241.241" height="241.241" filterUnits="userSpaceOnUse" color-interpolation-filters="sRGB">
<feFlood flood-opacity="0" result="BackgroundImageFix"/>
<feBlend mode="normal" in="SourceGraphic" in2="BackgroundImageFix" result="shape"/>
<feGaussianBlur stdDeviation="22" result="effect1_foregroundBlur_2_54"/>
</filter>
<filter id="filter1_f_2_54" x="21.7217" y="302.777" width="326.945" height="136.023" filterUnits="userSpaceOnUse" color-interpolation-filters="sRGB">
<feFlood flood-opacity="0" result="BackgroundImageFix"/>
<feBlend mode="normal" in="SourceGraphic" in2="BackgroundImageFix" result="shape"/>
<feGaussianBlur stdDeviation="7" result="effect1_foregroundBlur_2_54"/>
</filter>
<filter id="filter2_bd_2_54" x="99.1213" y="193.852" width="316.045" height="246.148" filterUnits="userSpaceOnUse" color-interpolation-filters="sRGB">
<feFlood flood-opacity="0" result="BackgroundImageFix"/>
<feGaussianBlur in="BackgroundImageFix" stdDeviation="7"/>
<feComposite in2="SourceAlpha" operator="in" result="effect1_backgroundBlur_2_54"/>
<feColorMatrix in="SourceAlpha" type="matrix" values="0 0 0 0 0 0 0 0 0 0 0 0 0 0 0 0 0 0 127 0" result="hardAlpha"/>
<feOffset dx="-21" dy="15"/>
<feGaussianBlur stdDeviation="25"/>
<feComposite in2="hardAlpha" operator="out"/>
<feColorMatrix type="matrix" values="0 0 0 0 0.113438 0 0 0 0 0.148981 0 0 0 0 0.275 0 0 0 0.25 0"/>
<feBlend mode="normal" in2="effect1_backgroundBlur_2_54" result="effect2_dropShadow_2_54"/>
<feBlend mode="normal" in="SourceGraphic" in2="effect2_dropShadow_2_54" result="shape"/>
</filter>
<linearGradient id="paint0_linear_2_54" x1="221.62" y1="161.024" x2="221.62" y2="309.241" gradientUnits="userSpaceOnUse">
<stop stop-color="#FFE600"/>
<stop offset="1" stop-color="#FF7A00"/>
</linearGradient>
<linearGradient id="paint1_linear_2_54" x1="221.62" y1="161.024" x2="221.62" y2="309.241" gradientUnits="userSpaceOnUse">
<stop stop-color="white"/>
<stop offset="1" stop-color="white" stop-opacity="0"/>
</linearGradient>
<linearGradient id="paint2_linear_2_54" x1="221.62" y1="161.024" x2="221.62" y2="309.241" gradientUnits="userSpaceOnUse">
<stop stop-color="#FFD600"/>
<stop offset="1" stop-color="#FF7A00"/>
</linearGradient>
<linearGradient id="paint3_linear_2_54" x1="288.192" y1="233.248" x2="288.192" y2="391.514" gradientUnits="userSpaceOnUse">
<stop stop-color="white"/>
<stop offset="1" stop-color="white" stop-opacity="0"/>
</linearGradient>
<linearGradient id="paint4_linear_2_54" x1="278.144" y1="228.852" x2="278.144" y2="375" gradientUnits="userSpaceOnUse">
<stop stop-color="white"/>
<stop offset="1" stop-color="white" stop-opacity="0"/>
</linearGradient>
</defs>
</svg>
