<svg width="531" height="531" viewBox="0 0 531 531" fill="none" xmlns="http://www.w3.org/2000/svg">
<g filter="url(#filter0_f_2_2)">
<circle cx="286" cy="217" r="61" fill="#FFC701" fill-opacity="0.5"/>
</g>
<circle cx="286" cy="219" r="58" fill="url(#paint0_linear_2_2)" stroke="url(#paint1_linear_2_2)" stroke-width="2"/>
<mask id="mask0_2_2" style="mask-type:alpha" maskUnits="userSpaceOnUse" x="227" y="193" width="118" height="85">
<path d="M345 219C345 251.585 318.585 278 286 278C253.415 278 227 251.585 227 219C227 186.415 248.915 194 281.5 194C314.085 194 345 186.415 345 219Z" fill="url(#paint2_linear_2_2)"/>
</mask>
<g mask="url(#mask0_2_2)">
<g filter="url(#filter1_f_2_2)">
<path fill-rule="evenodd" clip-rule="evenodd" d="M332.5 369.997C332.666 369.999 332.833 370 333 370C356.748 370 376 350.748 376 327C376 303.252 356.748 284 333 284C332.833 284 332.666 284.001 332.5 284.003V284H305.087C305.688 280.423 306 276.748 306 273C306 236.549 276.451 207 240 207C203.549 207 174 236.549 174 273C174 276.894 174.337 280.709 174.984 284.418C154.084 287.344 138 305.293 138 327C138 350.748 157.252 370 181 370C181.168 370 181.335 369.999 181.502 369.997L181.5 370H332.5V369.997Z" fill="#E18700"/>
</g>
</g>
<g filter="url(#filter2_bd_2_2)">
<mask id="path-5-inside-1_2_2" fill="white">
<path fill-rule="evenodd" clip-rule="evenodd" d="M307.5 374.997C307.666 374.999 307.833 375 308 375C331.748 375 351 355.748 351 332C351 308.252 331.748 289 308 289C307.833 289 307.666 289.001 307.5 289.003V289H296.391C296.793 286.057 297 283.053 297 280C297 243.549 267.451 214 231 214C194.549 214 165 243.549 165 280C165 283.439 165.263 286.817 165.77 290.115C162.631 289.386 159.361 289 156 289C132.252 289 113 308.252 113 332C113 355.748 132.252 375 156 375C156.168 375 156.335 374.999 156.502 374.997L156.5 375H307.5V374.997Z"/>
</mask>
<path fill-rule="evenodd" clip-rule="evenodd" d="M307.5 374.997C307.666 374.999 307.833 375 308 375C331.748 375 351 355.748 351 332C351 308.252 331.748 289 308 289C307.833 289 307.666 289.001 307.5 289.003V289H296.391C296.793 286.057 297 283.053 297 280C297 243.549 267.451 214 231 214C194.549 214 165 243.549 165 280C165 283.439 165.263 286.817 165.77 290.115C162.631 289.386 159.361 289 156 289C132.252 289 113 308.252 113 332C113 355.748 132.252 375 156 375C156.168 375 156.335 374.999 156.502 374.997L156.5 375H307.5V374.997Z" fill="url(#paint3_linear_2_2)" shape-rendering="crispEdges"/>
<path d="M307.5 374.997L307.523 372.997C306.988 372.991 306.474 373.199 306.094 373.575C305.714 373.951 305.5 374.463 305.5 374.997H307.5ZM307.5 289.003H305.5C305.5 289.537 305.714 290.049 306.094 290.425C306.474 290.801 306.988 291.009 307.523 291.003L307.5 289.003ZM307.5 289H309.5C309.5 287.895 308.605 287 307.5 287V289ZM296.391 289L294.41 288.73C294.332 289.302 294.505 289.88 294.885 290.315C295.265 290.75 295.814 291 296.391 291V289ZM165.77 290.115L165.318 292.063C165.964 292.213 166.643 292.033 167.13 291.582C167.617 291.13 167.848 290.467 167.747 289.811L165.77 290.115ZM156.502 374.997L158.072 376.237C158.549 375.632 158.637 374.807 158.297 374.115C157.957 373.423 157.25 372.988 156.479 372.997L156.502 374.997ZM156.5 375L154.931 373.76C154.455 374.362 154.366 375.182 154.7 375.872C155.034 376.562 155.733 377 156.5 377V375ZM307.5 375V377C308.605 377 309.5 376.105 309.5 375H307.5ZM307.477 376.997C307.651 376.999 307.825 377 308 377V373C307.841 373 307.682 372.999 307.523 372.997L307.477 376.997ZM308 377C332.853 377 353 356.853 353 332H349C349 354.644 330.644 373 308 373V377ZM353 332C353 307.147 332.853 287 308 287V291C330.644 291 349 309.356 349 332H353ZM308 287C307.826 287 307.651 287.001 307.477 287.003L307.523 291.003C307.682 291.001 307.841 291 308 291V287ZM305.5 289V289.003H309.5V289H305.5ZM296.391 291H307.5V287H296.391V291ZM298.373 289.27C298.787 286.238 299 283.143 299 280H295C295 282.962 294.799 285.876 294.41 288.73L298.373 289.27ZM299 280C299 242.445 268.555 212 231 212V216C266.346 216 295 244.654 295 280H299ZM231 212C193.445 212 163 242.445 163 280H167C167 244.654 195.654 216 231 216V212ZM163 280C163 283.542 163.271 287.021 163.793 290.419L167.747 289.811C167.255 286.614 167 283.337 167 280H163ZM166.223 288.167C162.937 287.403 159.514 287 156 287V291C159.207 291 162.326 291.368 165.318 292.063L166.223 288.167ZM156 287C131.147 287 111 307.147 111 332H115C115 309.356 133.356 291 156 291V287ZM111 332C111 356.853 131.147 377 156 377V373C133.356 373 115 354.644 115 332H111ZM156 377C156.175 377 156.35 376.999 156.525 376.997L156.479 372.997C156.32 372.999 156.16 373 156 373V377ZM158.069 376.24L158.072 376.237L154.933 373.757L154.931 373.76L158.069 376.24ZM307.5 373H156.5V377H307.5V373ZM305.5 374.997V375H309.5V374.997H305.5Z" fill="url(#paint4_linear_2_2)" mask="url(#path-5-inside-1_2_2)"/>
</g>
<g filter="url(#filter3_bd_2_2)">
<mask id="path-7-inside-2_2_2" fill="white">
<path fill-rule="evenodd" clip-rule="evenodd" d="M385.563 330.351C385.683 330.352 385.804 330.353 385.924 330.353C403.087 330.353 417 316.44 417 299.277C417 282.115 403.087 268.202 385.924 268.202C385.804 268.202 385.683 268.202 385.563 268.204V268.202H377.535C377.825 266.075 377.975 263.904 377.975 261.697C377.975 235.355 356.62 214 330.277 214C303.935 214 282.58 235.355 282.58 261.697C282.58 264.183 282.77 266.624 283.136 269.007C280.868 268.48 278.504 268.202 276.076 268.202C258.913 268.202 245 282.115 245 299.277C245 316.44 258.913 330.353 276.076 330.353C276.197 330.353 276.318 330.352 276.439 330.351L276.437 330.353H385.563V330.351Z"/>
</mask>
<path fill-rule="evenodd" clip-rule="evenodd" d="M385.563 330.351C385.683 330.352 385.804 330.353 385.924 330.353C403.087 330.353 417 316.44 417 299.277C417 282.115 403.087 268.202 385.924 268.202C385.804 268.202 385.683 268.202 385.563 268.204V268.202H377.535C377.825 266.075 377.975 263.904 377.975 261.697C377.975 235.355 356.62 214 330.277 214C303.935 214 282.58 235.355 282.58 261.697C282.58 264.183 282.77 266.624 283.136 269.007C280.868 268.48 278.504 268.202 276.076 268.202C258.913 268.202 245 282.115 245 299.277C245 316.44 258.913 330.353 276.076 330.353C276.197 330.353 276.318 330.352 276.439 330.351L276.437 330.353H385.563V330.351Z" fill="url(#paint5_linear_2_2)" shape-rendering="crispEdges"/>
<path d="M385.563 330.351L385.586 328.351C385.052 328.345 384.537 328.553 384.157 328.929C383.777 329.304 383.563 329.816 383.563 330.351H385.563ZM385.563 268.204H383.563C383.563 268.738 383.777 269.25 384.157 269.626C384.537 270.002 385.051 270.21 385.586 270.204L385.563 268.204ZM385.563 268.202H387.563C387.563 267.097 386.668 266.202 385.563 266.202V268.202ZM377.535 268.202L375.553 267.931C375.475 268.504 375.649 269.082 376.028 269.517C376.408 269.952 376.957 270.202 377.535 270.202V268.202ZM283.136 269.007L282.684 270.955C283.33 271.106 284.009 270.925 284.496 270.474C284.983 270.023 285.214 269.359 285.113 268.703L283.136 269.007ZM276.439 330.351L278.008 331.59C278.486 330.985 278.573 330.16 278.233 329.468C277.893 328.777 277.186 328.342 276.416 328.351L276.439 330.351ZM276.437 330.353L274.867 329.114C274.392 329.715 274.303 330.535 274.637 331.225C274.971 331.915 275.67 332.353 276.437 332.353V330.353ZM385.563 330.353V332.353C386.668 332.353 387.563 331.458 387.563 330.353H385.563ZM385.54 332.351C385.668 332.352 385.796 332.353 385.924 332.353V328.353C385.811 328.353 385.699 328.352 385.586 328.351L385.54 332.351ZM385.924 332.353C404.192 332.353 419 317.544 419 299.277H415C415 315.335 401.982 328.353 385.924 328.353V332.353ZM419 299.277C419 281.01 404.192 266.202 385.924 266.202V270.202C401.982 270.202 415 283.219 415 299.277H419ZM385.924 266.202C385.796 266.202 385.668 266.202 385.54 266.204L385.586 270.204C385.699 270.202 385.811 270.202 385.924 270.202V266.202ZM383.563 268.202V268.204H387.563V268.202H383.563ZM377.535 270.202H385.563V266.202H377.535V270.202ZM379.517 268.472C379.819 266.256 379.975 263.994 379.975 261.697H375.975C375.975 263.813 375.831 265.894 375.553 267.931L379.517 268.472ZM379.975 261.697C379.975 234.25 357.724 212 330.277 212V216C355.515 216 375.975 236.459 375.975 261.697H379.975ZM330.277 212C302.83 212 280.58 234.25 280.58 261.697H284.58C284.58 236.459 305.039 216 330.277 216V212ZM280.58 261.697C280.58 264.285 280.778 266.828 281.16 269.311L285.113 268.703C284.762 266.421 284.58 264.081 284.58 261.697H280.58ZM283.589 267.059C281.173 266.498 278.658 266.202 276.076 266.202V270.202C278.351 270.202 280.563 270.463 282.684 270.955L283.589 267.059ZM276.076 266.202C257.808 266.202 243 281.01 243 299.277H247C247 283.219 260.018 270.202 276.076 270.202V266.202ZM243 299.277C243 317.544 257.808 332.353 276.076 332.353V328.353C260.018 328.353 247 315.335 247 299.277H243ZM276.076 332.353C276.204 332.353 276.333 332.352 276.461 332.351L276.416 328.351C276.303 328.352 276.189 328.353 276.076 328.353V332.353ZM278.007 331.592L278.008 331.59L274.869 329.112L274.867 329.114L278.007 331.592ZM385.563 328.353H276.437V332.353H385.563V328.353ZM383.563 330.351V330.353H387.563V330.351H383.563Z" fill="url(#paint6_linear_2_2)" mask="url(#path-7-inside-2_2_2)"/>
</g>
<defs>
<filter id="filter0_f_2_2" x="181" y="112" width="210" height="210" filterUnits="userSpaceOnUse" color-interpolation-filters="sRGB">
<feFlood flood-opacity="0" result="BackgroundImageFix"/>
<feBlend mode="normal" in="SourceGraphic" in2="BackgroundImageFix" result="shape"/>
<feGaussianBlur stdDeviation="22" result="effect1_foregroundBlur_2_2"/>
</filter>
<filter id="filter1_f_2_2" x="124" y="193" width="266" height="191" filterUnits="userSpaceOnUse" color-interpolation-filters="sRGB">
<feFlood flood-opacity="0" result="BackgroundImageFix"/>
<feBlend mode="normal" in="SourceGraphic" in2="BackgroundImageFix" result="shape"/>
<feGaussianBlur stdDeviation="7" result="effect1_foregroundBlur_2_2"/>
</filter>
<filter id="filter2_bd_2_2" x="42" y="179" width="338" height="261" filterUnits="userSpaceOnUse" color-interpolation-filters="sRGB">
<feFlood flood-opacity="0" result="BackgroundImageFix"/>
<feGaussianBlur in="BackgroundImageFix" stdDeviation="7"/>
<feComposite in2="SourceAlpha" operator="in" result="effect1_backgroundBlur_2_2"/>
<feColorMatrix in="SourceAlpha" type="matrix" values="0 0 0 0 0 0 0 0 0 0 0 0 0 0 0 0 0 0 127 0" result="hardAlpha"/>
<feOffset dx="-21" dy="15"/>
<feGaussianBlur stdDeviation="25"/>
<feComposite in2="hardAlpha" operator="out"/>
<feColorMatrix type="matrix" values="0 0 0 0 0.113725 0 0 0 0 0.14902 0 0 0 0 0.27451 0 0 0 0.25 0"/>
<feBlend mode="normal" in2="effect1_backgroundBlur_2_2" result="effect2_dropShadow_2_2"/>
<feBlend mode="normal" in="SourceGraphic" in2="effect2_dropShadow_2_2" result="shape"/>
</filter>
<filter id="filter3_bd_2_2" x="174" y="179" width="272" height="216.353" filterUnits="userSpaceOnUse" color-interpolation-filters="sRGB">
<feFlood flood-opacity="0" result="BackgroundImageFix"/>
<feGaussianBlur in="BackgroundImageFix" stdDeviation="7"/>
<feComposite in2="SourceAlpha" operator="in" result="effect1_backgroundBlur_2_2"/>
<feColorMatrix in="SourceAlpha" type="matrix" values="0 0 0 0 0 0 0 0 0 0 0 0 0 0 0 0 0 0 127 0" result="hardAlpha"/>
<feOffset dx="-21" dy="15"/>
<feGaussianBlur stdDeviation="25"/>
<feComposite in2="hardAlpha" operator="out"/>
<feColorMatrix type="matrix" values="0 0 0 0 0.113438 0 0 0 0 0.148981 0 0 0 0 0.275 0 0 0 0.25 0"/>
<feBlend mode="normal" in2="effect1_backgroundBlur_2_2" result="effect2_dropShadow_2_2"/>
<feBlend mode="normal" in="SourceGraphic" in2="effect2_dropShadow_2_2" result="shape"/>
</filter>
<linearGradient id="paint0_linear_2_2" x1="286" y1="160" x2="286" y2="278" gradientUnits="userSpaceOnUse">
<stop stop-color="#FFE600"/>
<stop offset="1" stop-color="#FF7A00"/>
</linearGradient>
<linearGradient id="paint1_linear_2_2" x1="286" y1="160" x2="286" y2="278" gradientUnits="userSpaceOnUse">
<stop stop-color="white"/>
<stop offset="1" stop-color="white" stop-opacity="0"/>
</linearGradient>
<linearGradient id="paint2_linear_2_2" x1="286" y1="160" x2="286" y2="278" gradientUnits="userSpaceOnUse">
<stop stop-color="#FFD600"/>
<stop offset="1" stop-color="#FF7A00"/>
</linearGradient>
<linearGradient id="paint3_linear_2_2" x1="232" y1="162.5" x2="232" y2="397.5" gradientUnits="userSpaceOnUse">
<stop stop-color="white"/>
<stop offset="1" stop-color="white" stop-opacity="0"/>
</linearGradient>
<linearGradient id="paint4_linear_2_2" x1="232" y1="214" x2="232" y2="375" gradientUnits="userSpaceOnUse">
<stop stop-color="white"/>
<stop offset="1" stop-color="white" stop-opacity="0"/>
</linearGradient>
<linearGradient id="paint5_linear_2_2" x1="339" y1="217.5" x2="339" y2="343.5" gradientUnits="userSpaceOnUse">
<stop stop-color="white"/>
<stop offset="1" stop-color="white" stop-opacity="0"/>
</linearGradient>
<linearGradient id="paint6_linear_2_2" x1="331" y1="214" x2="331" y2="330.353" gradientUnits="userSpaceOnUse">
<stop stop-color="white"/>
<stop offset="1" stop-color="white" stop-opacity="0"/>
</linearGradient>
</defs>
</svg>
