<svg width="531" height="531" viewBox="0 0 531 531" fill="none" xmlns="http://www.w3.org/2000/svg">
<g filter="url(#filter0_bdd_2_148)">
<path d="M189.617 315.541L237.431 228.041C237.782 227.399 238.455 227 239.186 227H286.195C287.698 227 288.664 228.596 287.966 229.928L258.034 287.072C257.336 288.404 258.302 290 259.805 290H296.527C298.256 290 299.17 292.045 298.017 293.334L197.581 405.585C196.107 407.233 193.443 405.623 194.217 403.552L224.991 321.2C225.479 319.893 224.513 318.5 223.118 318.5H191.372C189.853 318.5 188.889 316.874 189.617 315.541Z" fill="url(#paint0_linear_2_148)"/>
<path d="M190.494 316.02L238.309 228.52C238.484 228.2 238.821 228 239.186 228H286.195C286.946 228 287.429 228.798 287.08 229.464L257.148 286.608C256.102 288.605 257.55 291 259.805 291H296.527C297.391 291 297.848 292.023 297.272 292.667L196.836 404.919C196.099 405.743 194.767 404.938 195.154 403.902L225.928 321.55C226.66 319.589 225.211 317.5 223.118 317.5H191.372C190.613 317.5 190.13 316.687 190.494 316.02Z" stroke="url(#paint1_linear_2_148)" stroke-width="2"/>
</g>
<g filter="url(#filter1_bd_2_148)">
<mask id="path-3-inside-1_2_148" fill="white">
<path fill-rule="evenodd" clip-rule="evenodd" d="M307.5 277.997C307.666 277.999 307.833 278 308 278C331.748 278 351 258.748 351 235C351 211.252 331.748 192 308 192C307.833 192 307.666 192.001 307.5 192.003V192H296.391C296.793 189.057 297 186.053 297 183C297 146.549 267.451 117 231 117C194.549 117 165 146.549 165 183C165 186.439 165.263 189.817 165.77 193.115C162.631 192.386 159.361 192 156 192C132.252 192 113 211.252 113 235C113 258.748 132.252 278 156 278C156.168 278 156.335 277.999 156.502 277.997L156.5 278H307.5V277.997Z"/>
</mask>
<path fill-rule="evenodd" clip-rule="evenodd" d="M307.5 277.997C307.666 277.999 307.833 278 308 278C331.748 278 351 258.748 351 235C351 211.252 331.748 192 308 192C307.833 192 307.666 192.001 307.5 192.003V192H296.391C296.793 189.057 297 186.053 297 183C297 146.549 267.451 117 231 117C194.549 117 165 146.549 165 183C165 186.439 165.263 189.817 165.77 193.115C162.631 192.386 159.361 192 156 192C132.252 192 113 211.252 113 235C113 258.748 132.252 278 156 278C156.168 278 156.335 277.999 156.502 277.997L156.5 278H307.5V277.997Z" fill="url(#paint2_linear_2_148)" shape-rendering="crispEdges"/>
<path d="M307.5 277.997L307.523 275.997C306.988 275.991 306.474 276.199 306.094 276.575C305.714 276.951 305.5 277.463 305.5 277.997H307.5ZM307.5 192.003H305.5C305.5 192.537 305.714 193.049 306.094 193.425C306.474 193.801 306.988 194.009 307.523 194.003L307.5 192.003ZM307.5 192H309.5C309.5 190.895 308.605 190 307.5 190V192ZM296.391 192L294.41 191.73C294.332 192.302 294.505 192.88 294.885 193.315C295.265 193.75 295.814 194 296.391 194V192ZM165.77 193.115L165.318 195.063C165.964 195.213 166.643 195.033 167.13 194.582C167.617 194.13 167.848 193.467 167.747 192.811L165.77 193.115ZM156.502 277.997L158.072 279.237C158.549 278.632 158.637 277.807 158.297 277.115C157.957 276.423 157.25 275.988 156.479 275.997L156.502 277.997ZM156.5 278L154.931 276.76C154.455 277.362 154.366 278.182 154.7 278.872C155.034 279.562 155.733 280 156.5 280V278ZM307.5 278V280C308.605 280 309.5 279.105 309.5 278H307.5ZM307.477 279.997C307.651 279.999 307.825 280 308 280V276C307.841 276 307.682 275.999 307.523 275.997L307.477 279.997ZM308 280C332.853 280 353 259.853 353 235H349C349 257.644 330.644 276 308 276V280ZM353 235C353 210.147 332.853 190 308 190V194C330.644 194 349 212.356 349 235H353ZM308 190C307.826 190 307.651 190.001 307.477 190.003L307.523 194.003C307.682 194.001 307.841 194 308 194V190ZM305.5 192V192.003H309.5V192H305.5ZM296.391 194H307.5V190H296.391V194ZM298.373 192.27C298.787 189.238 299 186.143 299 183H295C295 185.962 294.799 188.876 294.41 191.73L298.373 192.27ZM299 183C299 145.445 268.555 115 231 115V119C266.346 119 295 147.654 295 183H299ZM231 115C193.445 115 163 145.445 163 183H167C167 147.654 195.654 119 231 119V115ZM163 183C163 186.542 163.271 190.021 163.793 193.419L167.747 192.811C167.255 189.614 167 186.337 167 183H163ZM166.223 191.167C162.937 190.403 159.514 190 156 190V194C159.207 194 162.326 194.368 165.318 195.063L166.223 191.167ZM156 190C131.147 190 111 210.147 111 235H115C115 212.356 133.356 194 156 194V190ZM111 235C111 259.853 131.147 280 156 280V276C133.356 276 115 257.644 115 235H111ZM156 280C156.175 280 156.35 279.999 156.525 279.997L156.479 275.997C156.32 275.999 156.16 276 156 276V280ZM158.069 279.24L158.072 279.237L154.933 276.757L154.931 276.76L158.069 279.24ZM307.5 276H156.5V280H307.5V276ZM305.5 277.997V278H309.5V277.997H305.5Z" fill="url(#paint3_linear_2_148)" mask="url(#path-3-inside-1_2_148)"/>
</g>
<g filter="url(#filter2_bd_2_148)">
<mask id="path-5-inside-2_2_148" fill="white">
<path fill-rule="evenodd" clip-rule="evenodd" d="M385.563 233.351C385.683 233.352 385.804 233.353 385.924 233.353C403.087 233.353 417 219.44 417 202.277C417 185.115 403.087 171.202 385.924 171.202C385.804 171.202 385.683 171.202 385.563 171.204V171.202H377.535C377.825 169.075 377.975 166.904 377.975 164.697C377.975 138.355 356.62 117 330.277 117C303.935 117 282.58 138.355 282.58 164.697C282.58 167.183 282.77 169.624 283.136 172.007C280.868 171.48 278.504 171.202 276.076 171.202C258.913 171.202 245 185.115 245 202.277C245 219.44 258.913 233.353 276.076 233.353C276.197 233.353 276.318 233.352 276.439 233.351L276.437 233.353H385.563V233.351Z"/>
</mask>
<path fill-rule="evenodd" clip-rule="evenodd" d="M385.563 233.351C385.683 233.352 385.804 233.353 385.924 233.353C403.087 233.353 417 219.44 417 202.277C417 185.115 403.087 171.202 385.924 171.202C385.804 171.202 385.683 171.202 385.563 171.204V171.202H377.535C377.825 169.075 377.975 166.904 377.975 164.697C377.975 138.355 356.62 117 330.277 117C303.935 117 282.58 138.355 282.58 164.697C282.58 167.183 282.77 169.624 283.136 172.007C280.868 171.48 278.504 171.202 276.076 171.202C258.913 171.202 245 185.115 245 202.277C245 219.44 258.913 233.353 276.076 233.353C276.197 233.353 276.318 233.352 276.439 233.351L276.437 233.353H385.563V233.351Z" fill="url(#paint4_linear_2_148)" shape-rendering="crispEdges"/>
<path d="M385.563 233.351L385.586 231.351C385.052 231.345 384.537 231.553 384.157 231.929C383.777 232.304 383.563 232.816 383.563 233.351H385.563ZM385.563 171.204H383.563C383.563 171.738 383.777 172.25 384.157 172.626C384.537 173.002 385.051 173.21 385.586 173.204L385.563 171.204ZM385.563 171.202H387.563C387.563 170.097 386.668 169.202 385.563 169.202V171.202ZM377.535 171.202L375.553 170.931C375.475 171.504 375.649 172.082 376.028 172.517C376.408 172.952 376.957 173.202 377.535 173.202V171.202ZM283.136 172.007L282.684 173.955C283.33 174.106 284.009 173.925 284.496 173.474C284.983 173.023 285.214 172.359 285.113 171.703L283.136 172.007ZM276.439 233.351L278.008 234.59C278.486 233.985 278.573 233.16 278.233 232.468C277.893 231.777 277.186 231.342 276.416 231.351L276.439 233.351ZM276.437 233.353L274.867 232.114C274.392 232.715 274.303 233.535 274.637 234.225C274.971 234.915 275.67 235.353 276.437 235.353V233.353ZM385.563 233.353V235.353C386.668 235.353 387.563 234.458 387.563 233.353H385.563ZM385.54 235.351C385.668 235.352 385.796 235.353 385.924 235.353V231.353C385.811 231.353 385.699 231.352 385.586 231.351L385.54 235.351ZM385.924 235.353C404.192 235.353 419 220.544 419 202.277H415C415 218.335 401.982 231.353 385.924 231.353V235.353ZM419 202.277C419 184.01 404.192 169.202 385.924 169.202V173.202C401.982 173.202 415 186.219 415 202.277H419ZM385.924 169.202C385.796 169.202 385.668 169.202 385.54 169.204L385.586 173.204C385.699 173.202 385.811 173.202 385.924 173.202V169.202ZM383.563 171.202V171.204H387.563V171.202H383.563ZM377.535 173.202H385.563V169.202H377.535V173.202ZM379.517 171.472C379.819 169.256 379.975 166.994 379.975 164.697H375.975C375.975 166.813 375.831 168.894 375.553 170.931L379.517 171.472ZM379.975 164.697C379.975 137.25 357.724 115 330.277 115V119C355.515 119 375.975 139.459 375.975 164.697H379.975ZM330.277 115C302.83 115 280.58 137.25 280.58 164.697H284.58C284.58 139.459 305.039 119 330.277 119V115ZM280.58 164.697C280.58 167.285 280.778 169.828 281.16 172.311L285.113 171.703C284.762 169.421 284.58 167.081 284.58 164.697H280.58ZM283.589 170.059C281.173 169.498 278.658 169.202 276.076 169.202V173.202C278.351 173.202 280.563 173.463 282.684 173.955L283.589 170.059ZM276.076 169.202C257.808 169.202 243 184.01 243 202.277H247C247 186.219 260.018 173.202 276.076 173.202V169.202ZM243 202.277C243 220.544 257.808 235.353 276.076 235.353V231.353C260.018 231.353 247 218.335 247 202.277H243ZM276.076 235.353C276.204 235.353 276.333 235.352 276.461 235.351L276.416 231.351C276.303 231.352 276.189 231.353 276.076 231.353V235.353ZM278.007 234.592L278.008 234.59L274.869 232.112L274.867 232.114L278.007 234.592ZM385.563 231.353H276.437V235.353H385.563V231.353ZM383.563 233.351V233.353H387.563V233.351H383.563Z" fill="url(#paint5_linear_2_148)" mask="url(#path-5-inside-2_2_148)"/>
</g>
<defs>
<filter id="filter0_bdd_2_148" x="118.369" y="166" width="241.162" height="305.265" filterUnits="userSpaceOnUse" color-interpolation-filters="sRGB">
<feFlood flood-opacity="0" result="BackgroundImageFix"/>
<feGaussianBlur in="BackgroundImageFix" stdDeviation="7"/>
<feComposite in2="SourceAlpha" operator="in" result="effect1_backgroundBlur_2_148"/>
<feColorMatrix in="SourceAlpha" type="matrix" values="0 0 0 0 0 0 0 0 0 0 0 0 0 0 0 0 0 0 127 0" result="hardAlpha"/>
<feOffset dx="-21" dy="15"/>
<feGaussianBlur stdDeviation="25"/>
<feComposite in2="hardAlpha" operator="out"/>
<feColorMatrix type="matrix" values="0 0 0 0 0.113438 0 0 0 0 0.148981 0 0 0 0 0.275 0 0 0 0.25 0"/>
<feBlend mode="normal" in2="effect1_backgroundBlur_2_148" result="effect2_dropShadow_2_148"/>
<feColorMatrix in="SourceAlpha" type="matrix" values="0 0 0 0 0 0 0 0 0 0 0 0 0 0 0 0 0 0 127 0" result="hardAlpha"/>
<feOffset/>
<feGaussianBlur stdDeviation="30.5"/>
<feComposite in2="hardAlpha" operator="out"/>
<feColorMatrix type="matrix" values="0 0 0 0 1 0 0 0 0 0.721569 0 0 0 0 0.00392157 0 0 0 0.49 0"/>
<feBlend mode="normal" in2="effect2_dropShadow_2_148" result="effect3_dropShadow_2_148"/>
<feBlend mode="normal" in="SourceGraphic" in2="effect3_dropShadow_2_148" result="shape"/>
</filter>
<filter id="filter1_bd_2_148" x="42" y="82" width="338" height="261" filterUnits="userSpaceOnUse" color-interpolation-filters="sRGB">
<feFlood flood-opacity="0" result="BackgroundImageFix"/>
<feGaussianBlur in="BackgroundImageFix" stdDeviation="7"/>
<feComposite in2="SourceAlpha" operator="in" result="effect1_backgroundBlur_2_148"/>
<feColorMatrix in="SourceAlpha" type="matrix" values="0 0 0 0 0 0 0 0 0 0 0 0 0 0 0 0 0 0 127 0" result="hardAlpha"/>
<feOffset dx="-21" dy="15"/>
<feGaussianBlur stdDeviation="25"/>
<feComposite in2="hardAlpha" operator="out"/>
<feColorMatrix type="matrix" values="0 0 0 0 0.113725 0 0 0 0 0.14902 0 0 0 0 0.27451 0 0 0 0.25 0"/>
<feBlend mode="normal" in2="effect1_backgroundBlur_2_148" result="effect2_dropShadow_2_148"/>
<feBlend mode="normal" in="SourceGraphic" in2="effect2_dropShadow_2_148" result="shape"/>
</filter>
<filter id="filter2_bd_2_148" x="174" y="82" width="272" height="216.353" filterUnits="userSpaceOnUse" color-interpolation-filters="sRGB">
<feFlood flood-opacity="0" result="BackgroundImageFix"/>
<feGaussianBlur in="BackgroundImageFix" stdDeviation="7"/>
<feComposite in2="SourceAlpha" operator="in" result="effect1_backgroundBlur_2_148"/>
<feColorMatrix in="SourceAlpha" type="matrix" values="0 0 0 0 0 0 0 0 0 0 0 0 0 0 0 0 0 0 127 0" result="hardAlpha"/>
<feOffset dx="-21" dy="15"/>
<feGaussianBlur stdDeviation="25"/>
<feComposite in2="hardAlpha" operator="out"/>
<feColorMatrix type="matrix" values="0 0 0 0 0.113438 0 0 0 0 0.148981 0 0 0 0 0.275 0 0 0 0.25 0"/>
<feBlend mode="normal" in2="effect1_backgroundBlur_2_148" result="effect2_dropShadow_2_148"/>
<feBlend mode="normal" in="SourceGraphic" in2="effect2_dropShadow_2_148" result="shape"/>
</filter>
<linearGradient id="paint0_linear_2_148" x1="255.5" y1="238" x2="230.5" y2="346.5" gradientUnits="userSpaceOnUse">
<stop stop-color="#FF4D00"/>
<stop offset="1" stop-color="#FFB800"/>
</linearGradient>
<linearGradient id="paint1_linear_2_148" x1="222" y1="345" x2="267.5" y2="247.5" gradientUnits="userSpaceOnUse">
<stop stop-color="white"/>
<stop offset="1" stop-color="white" stop-opacity="0"/>
</linearGradient>
<linearGradient id="paint2_linear_2_148" x1="232" y1="65.5" x2="232" y2="300.5" gradientUnits="userSpaceOnUse">
<stop stop-color="white"/>
<stop offset="1" stop-color="white" stop-opacity="0"/>
</linearGradient>
<linearGradient id="paint3_linear_2_148" x1="232" y1="117" x2="232" y2="278" gradientUnits="userSpaceOnUse">
<stop stop-color="white"/>
<stop offset="1" stop-color="white" stop-opacity="0"/>
</linearGradient>
<linearGradient id="paint4_linear_2_148" x1="339" y1="120.5" x2="339" y2="246.5" gradientUnits="userSpaceOnUse">
<stop stop-color="white"/>
<stop offset="1" stop-color="white" stop-opacity="0"/>
</linearGradient>
<linearGradient id="paint5_linear_2_148" x1="331" y1="117" x2="331" y2="233.353" gradientUnits="userSpaceOnUse">
<stop stop-color="white"/>
<stop offset="1" stop-color="white" stop-opacity="0"/>
</linearGradient>
</defs>
</svg>
